<?xml version="1.0" encoding="utf-8"?>
<!-- Generator: Adobe Illustrator 17.0.0, SVG Export Plug-In . SVG Version: 6.00 Build 0)  -->
<!DOCTYPE svg PUBLIC "-//W3C//DTD SVG 1.1//EN" "http://www.w3.org/Graphics/SVG/1.1/DTD/svg11.dtd">
<svg version="1.1" id="Ebene_1" xmlns="http://www.w3.org/2000/svg" xmlns:xlink="http://www.w3.org/1999/xlink" x="0px" y="0px"
	 width="959px" height="757px" viewBox="0 0 959 757" enable-background="new 0 0 959 757" xml:space="preserve">
<g>
	<g>
		<path fill="#006633" d="M94.933,314.699c-2.127,2.128-3.189,4.913-3.189,8.36c0,3.448,1.062,6.265,3.189,8.447
			c2.125,2.184,4.913,3.275,8.361,3.275h23.443c-2.529,8.045-7.154,14.539-13.876,19.479c-6.723,4.942-14.337,7.412-22.841,7.412
			c-10.803,0-19.909-3.714-27.321-11.142c-7.413-7.429-11.119-16.557-11.119-27.385c0-10.94,3.677-20.098,11.032-27.469
			c7.353-7.37,16.489-11.057,27.408-11.057c11.606,0,21.203,4.296,28.788,12.885c2.526,2.788,5.343,4.18,8.446,4.18
			c3.216,0,6.033-1.182,8.447-3.547c2.413-2.365,3.62-5.166,3.62-8.398c0-2.653-1.094-5.193-3.275-7.617
			c-12.412-13.85-27.754-20.774-46.026-20.774c-17.237,0-31.833,5.984-43.784,17.954c-11.953,11.97-17.927,26.584-17.927,43.843
			c0,17.262,5.974,31.877,17.927,43.846c11.951,11.97,26.547,17.952,43.784,17.952c17.238,0,31.831-5.973,43.785-17.927
			c11.95-11.951,17.927-26.546,17.927-43.784c0-3.103-1.15-5.831-3.447-8.188c-2.301-2.354-4.999-3.534-8.102-3.534h-36.889
			C99.846,311.51,97.058,312.574,94.933,314.699z"/>
		<path fill="#006633" d="M212.752,381.668c2.182-2.182,3.275-4.999,3.275-8.447c0-3.447-1.093-6.232-3.275-8.36
			c-2.184-2.125-4.999-3.189-8.446-3.189c-5.748,0-10.631-2.047-14.653-6.144c-4.024-4.096-6.033-9.031-6.033-14.8
			c0-5.769,2.009-10.671,6.033-14.711c4.022-4.041,8.905-6.061,14.653-6.061c5.745,0,10.657,2.028,14.738,6.082
			c4.078,4.056,6.12,8.98,6.12,14.771v32.493c0,3.474,1.061,6.284,3.189,8.428c2.125,2.141,4.912,3.213,8.36,3.213
			c3.447,0,6.262-1.069,8.446-3.208c2.182-2.138,3.276-4.94,3.276-8.409v-32.426c0-12.483-4.253-22.975-12.756-31.47
			c-8.506-8.494-18.962-12.745-31.373-12.745c-12.411,0-22.841,4.232-31.287,12.694c-8.447,8.463-12.67,18.914-12.67,31.349
			c0,12.436,4.223,22.913,12.67,31.435c8.446,8.522,18.876,12.78,31.287,12.78C207.753,384.944,210.568,383.85,212.752,381.668z"/>
		<path fill="#006633" d="M305.662,273.07c0-3.448,1.091-6.233,3.275-8.36c2.182-2.126,4.999-3.189,8.447-3.189
			c3.447,0,6.232,1.063,8.36,3.189c2.125,2.127,3.189,4.912,3.189,8.36v74.295c0,3.908,1.349,7.213,4.051,9.912
			c2.699,2.701,6.004,4.051,9.911,4.051c3.906,0,7.211-1.35,9.913-4.051c2.698-2.699,4.05-6.004,4.05-9.912V273.07
			c0-3.448,1.061-6.233,3.189-8.36c2.125-2.126,4.913-3.189,8.361-3.189c3.447,0,6.262,1.063,8.446,3.189
			c2.182,2.127,3.275,4.912,3.275,8.36v74.295c0,10.459-3.592,19.28-10.773,26.46c-7.184,7.183-16.005,10.774-26.461,10.774
			c-9.079,0-17.065-2.93-23.96-8.791c-6.895,5.861-14.884,8.791-23.961,8.791c-10.574,0-19.422-3.561-26.546-10.688
			c-7.127-7.124-10.687-15.971-10.687-26.546V273.07c0-3.448,1.09-6.233,3.275-8.36c2.181-2.126,4.999-3.189,8.446-3.189
			c3.448,0,6.233,1.063,8.361,3.189c2.125,2.127,3.189,4.912,3.189,8.36v74.295c0,3.908,1.349,7.213,4.05,9.912
			c2.699,2.701,6.004,4.051,9.912,4.051c4.366,0,7.93-1.665,10.688-4.999V273.07z"/>
	</g>
	<g>
		<path fill="#006633" d="M121.918,555.198c1.759-1.762,2.641-3.985,2.641-6.672c0-2.78-0.858-5.052-2.572-6.811
			c-1.715-1.761-3.961-2.641-6.741-2.641h-0.695c-3.152,0-5.793-1.091-7.924-3.272c-2.132-2.18-3.196-4.847-3.196-8v-64.441
			c0-10.018-3.43-18.439-10.286-25.259c-6.859-6.82-15.29-10.23-25.299-10.23c-10.008,0-18.418,3.412-25.229,10.232
			c-6.811,6.82-10.216,15.242-10.216,25.264v54.564c0,2.785,0.855,5.037,2.571,6.753c1.714,1.713,3.962,2.574,6.742,2.574
			s5.05-0.861,6.811-2.577c1.759-1.715,2.641-3.967,2.641-6.752v-54.585c0-4.638,1.62-8.585,4.865-11.834
			c3.242-3.249,7.18-4.874,11.815-4.874c4.633,0,8.594,1.629,11.885,4.887c3.288,3.258,4.935,7.211,4.935,11.863
			c0,4.653-1.647,8.631-4.935,11.935c-3.291,3.304-7.252,4.954-11.885,4.954c-2.78,0-5.028,0.858-6.741,2.571
			c-1.716,1.716-2.572,3.962-2.572,6.742s0.856,5.052,2.572,6.811c1.713,1.762,3.961,2.641,6.741,2.641
			c5.929,0,11.537-1.39,16.82-4.17v32.943c0,8.432,2.871,15.545,8.618,21.337c5.744,5.791,12.833,8.688,21.267,8.688h0.695
			C117.933,557.839,120.156,556.957,121.918,555.198z"/>
		<path fill="#006633" d="M139.638,459.009c-1.716,1.762-2.571,4.031-2.571,6.812c0,2.779,0.855,5.027,2.571,6.741
			c1.714,1.716,3.961,2.571,6.742,2.571c4.633,0,8.594,1.64,11.884,4.915c3.289,3.275,4.935,7.222,4.935,11.835
			c0,4.615-1.646,8.538-4.935,11.768c-3.29,3.229-7.251,4.842-11.884,4.842c-4.635,0-8.573-1.624-11.816-4.873
			c-3.244-3.249-4.864-7.193-4.864-11.835v-54.584c0-2.785-0.882-5.035-2.642-6.753c-1.761-1.715-4.031-2.576-6.811-2.576
			c-2.689,0-4.913,0.882-6.672,2.646c-1.761,1.763-2.641,3.99-2.641,6.68v54.566c0,9.93,3.428,18.328,10.287,25.196
			c6.856,6.867,15.242,10.299,25.159,10.299c9.914,0,18.324-3.421,25.229-10.265c6.902-6.843,10.355-15.214,10.355-25.111
			c0-9.988-3.43-18.404-10.286-25.248c-6.859-6.844-15.29-10.267-25.298-10.267C143.599,456.368,141.352,457.25,139.638,459.009z"/>
		<path fill="#006633" d="M206.913,430.166c2.27,2.271,3.406,4.982,3.406,8.132c0,3.151-1.136,5.861-3.406,8.131
			c-2.271,2.272-4.982,3.406-8.131,3.406c-3.152,0-5.862-1.134-8.132-3.406c-2.271-2.27-3.405-4.98-3.405-8.131
			c0-3.15,1.134-5.861,3.405-8.132c2.27-2.27,4.98-3.406,8.132-3.406C201.931,426.76,204.642,427.896,206.913,430.166z
			 M208.234,465.698c0-6.221-3.151-9.33-9.452-9.33c-2.78,0-5.028,0.859-6.742,2.578c-1.716,1.718-2.571,3.968-2.571,6.752v52.23
			c0,2.785,0.855,5.037,2.571,6.754c1.714,1.716,3.962,2.577,6.742,2.577s5.05-0.861,6.811-2.577
			c1.759-1.717,2.641-3.969,2.641-6.754V465.698z"/>
	</g>
	<g>
		<path fill="#006633" d="M382.359,492.099c7.339-8.481,11.008-17.247,11.008-26.298c0-10.18-3.482-18.731-10.444-25.66
			c-6.964-6.927-15.525-10.392-25.687-10.392s-18.701,3.469-25.616,10.408c-6.916,6.937-10.374,15.503-10.374,25.695
			c0,2.832,0.869,5.143,2.611,6.935c1.74,1.796,4.023,2.691,6.845,2.691c2.823,0,5.128-0.898,6.916-2.694
			c1.786-1.798,2.682-4.116,2.682-6.954c0-4.728,1.645-8.749,4.939-12.06c3.293-3.311,7.291-4.967,11.997-4.967
			c4.704,0,8.727,1.65,12.067,4.949c3.339,3.299,5.011,7.306,5.011,12.016c0,5.562-3.906,12.067-11.715,19.513
			c-4.611,4.43-10.726,9.379-18.347,14.843c-6.87,4.997-13.034,9.285-18.49,12.866c-3.951,2.64-5.927,5.797-5.927,9.474
			c0,5.467,3.621,8.199,10.867,8.199h53.068c2.823,0,5.128-0.871,6.916-2.611c1.786-1.74,2.681-4.022,2.681-6.845
			s-0.895-5.128-2.681-6.916c-1.788-1.786-4.093-2.681-6.916-2.681h-23.146C370.973,503.411,378.217,496.907,382.359,492.099z"/>
		<path fill="#006633" d="M473.885,457.928c6.069,6.083,9.104,13.556,9.104,22.418c0,8.866-3.035,16.34-9.104,22.422
			s-13.527,9.123-22.37,9.123c-8.846,0-16.302-3.041-22.37-9.123c-6.069-6.082-9.104-13.556-9.104-22.422
			c0-8.957,3.01-16.455,9.033-22.491c6.021-6.033,13.501-9.052,22.441-9.052C460.358,448.803,467.816,451.845,473.885,457.928z
			 M415.666,444.449c-9.787,9.801-14.678,21.767-14.678,35.897c0,14.134,4.891,26.1,14.678,35.901
			c9.785,9.8,21.735,14.698,35.849,14.698c14.114,0,26.062-4.898,35.849-14.698c9.785-9.801,14.678-21.767,14.678-35.901
			c0-14.13-4.893-26.096-14.678-35.897c-9.787-9.8-21.735-14.7-35.849-14.7C437.401,429.749,425.451,434.649,415.666,444.449z"/>
	</g>
	<g>
		<path fill="#006633" d="M578.317,430.309c-1.765-1.719-4.038-2.58-6.823-2.58c-2.784,0-5.036,0.861-6.753,2.58
			c-1.719,1.719-2.576,3.973-2.576,6.762v80.873c0,2.789,0.857,5.045,2.576,6.763c1.717,1.717,3.969,2.579,6.753,2.579
			c2.785,0,5.058-0.862,6.823-2.579c1.762-1.718,2.646-3.974,2.646-6.763v-80.873C580.963,434.282,580.079,432.028,578.317,430.309z
			"/>
		<path fill="#006633" d="M660.399,455.528c5.987,6.001,8.981,13.374,8.981,22.118c0,8.746-2.994,16.119-8.981,22.119
			c-5.988,6.001-13.346,9.001-22.07,9.001c-8.726,0-16.082-3-22.07-9.001c-5.987-6-8.981-13.373-8.981-22.119
			c0-8.838,2.97-16.235,8.912-22.189c5.939-5.954,13.319-8.932,22.139-8.932C647.053,446.525,654.411,449.528,660.399,455.528z
			 M602.962,442.231c-9.655,9.668-14.481,21.474-14.481,35.415c0,13.943,4.826,25.748,14.481,35.417
			c9.653,9.668,21.443,14.5,35.367,14.5c13.924,0,25.712-4.832,35.367-14.5c9.654-9.669,14.481-21.474,14.481-35.417
			c0-13.941-4.827-25.747-14.481-35.415c-9.655-9.669-21.443-14.503-35.367-14.503C624.405,427.728,612.615,432.562,602.962,442.231
			z"/>
	</g>
	<g>
		<path fill="#509634" d="M714.625,40.543c0,0,5.667-1,7-1.333c1.333-0.334,2-0.667,2-0.667l4.667,0.333l4,3.334
			c0,0,2.333,2.333,4.666,2.333h6.667l7.667,1l6-0.333l3.666,3.333l5.334,0.333c0,0,1.333-2,2.333-2h1.667c0,0,4.333,2,5.333,2.667
			c1,0.667,4.333,1,4.333,1l1.334-4l3.333,3l3.667,2.667l2,1.666h4l7.333,1l2.667,3l3.666,4.334l4.334,1.333l4.666,4.667h4.667
			l6-0.667l4.333-0.333v4h3.667l3,1v4.333l4,1.667l2,7l2,0.666l5.667,4.667l2.666,5l-2.333,3c0,0-1,3.667,3.333,5.667
			c4.333,2,14.667,22,14.667,22l2,1l9,1.666c0,0-6,3.667-5,3.667s8,5.667,8,5.667l-5,2.666l1.667,2.667l-8.667,0.667l2.333,3.666
			l12,1.334l-7,3.333l3,0.667l-0.666,4l5.333,0.333h7.667l5,1.667l-2.667,2.333c0,0-0.667,4.667-0.333,5.667
			c0.334,1,1.333,4.666,1.333,4.666l5.333,3.667l3.667,1.667l-1,3l0.667,3l6.333,6l4.333,4.333h4.667v4l-1.666,4
			c0,0,2,3.667,4,3.667h-2l-3,2.333l-6,3l-1,6l2.333,4l-1.333,1.667l-2,4l4,2l4,2v3.666v4l-3.334,1.667l-3.666,1l-4,1.667l-2,2
			l-5.667-0.334l-6.667-2.666l-0.666,2.333c0,0,1,4.667,3.333,4.667h-2.333l-4.334,1l2,1.333l-1.333,3.667h-2l-3.333,3l-1.667,5
			l-3.667,7.333l-0.333,4.333l-1.667,8.667l-2.666,5l3.666,15.667l-1.333,5l2.667,1.666l1.666,6.334l-3.333-1l-2.667,4.666
			l0.334,9.334l3,4l4-4l3-1.334l0.333,3.334v8l0.667,7l-1,8.333l-4.667,2.333l-1.667,3.334l1.334,4l6,6.333l6,5.333l2,4.334h-3.667
			l1.333,6.333l1.667,5l-2,7.666l-5.333,8c0,0,1,4,1,3s6.333-1.666,6.333-1.666l4.667,3.666l-6.334,5l6.334,2.334l-10.667,11.333
			l-1.667,5l7.334-3l5,1.667l-4.667,5l-4.333,5.667l-8.334,0.333l-3-2l-1.666-5.667l-2.667,5.667l-3.333,2l-2-5.667l-3,4.334
			l3,5.666l3.666,6.333l-0.666,6.667l-1.334,8.333l-2.666,6.667l-3.334,1.333l-4.666-2.333l2,5.333l1,2l4-1.333l3.333,1.667
			l3.667,2.666l0.333,5l1.667,2.334l3,4.666l3.666,8l6,9.667l-3.333-1l-4-4.333l-5.667-6.334l-5.333-4.666l4,10.333l4.667,9.333l3,9
			l5,12.334v2.666c0,0-5.334-6-6-7.666s-2.334-6-2.667-7s-11.333-27-11.333-27l-2.334,1.666c0,0-2.666,5.667-3,7
			c-0.334,1.333,0,12,0,12l-3,1.667l-6.333-3.333c0,0,6.667,19,7,21s2.333,12.333,2.333,12.333l-5.333-7.333v11.666l-8-23.666
			l-1,4.666l-0.667,9l-0.333,8l-1.667,5.667l-5.333,2.333l-1.667-2l3.667-5h-2.667h-7.667l-2.333-1.333l-3.333-2.667l-3.667-4
			l-2-4.333l-1-5.667v-5l-1-5.333l3-5.667l5.667-3l2.666-2h-2.666l-1.667-2.333l4-0.667l3-3v-5.333l-2-4.667l-5.333-3l-2.334-6.333
			l-2.666-5l-3.667-2l-6.667-0.667l4.334,9.334l0.666,5.333h-4l2.334,2l4.333,6.667c0,0-2.333,0-6.333,0.333c-4,0.333-4,2-4,2
			l0.333,3c0,0,8.333,0.333,10,0.333c1.667,0-2,2.667-2,2.667s-1.667,0.333-3,0.333h-3l-2.333,1.334l-1.667,5.666v3l8-0.666v3.666
			l-4,3.334l-5,2l-1,7.333l2.333,5.667l9.334,3l0.666,4.666l2.667,6.667l0.333,5l-3.333,0.333l-5,1c0,0,1,3,1.333,4
			c0.333,1,0.334,6,0.334,6l-3,5l-3.334-3.333l-5-1l-6.333,0.667l-4.667,4l8.667-0.334l5,4l0.667,8.334l-2.334-2.334
			c0,0-2.333-4-3.333-4.333s-3-2-3-2l-2.667,3l5,3.333c0,0,5.001,5.333,5.001,9.667s-15,18.333-15,18.333l-10.667,9l-3.333-0.667
			l3.333-8l-6.333,2l-1.667,7l-4.333,2c0,0-3,6.667-4.334,4c-1.334-2.667-11.333-6.666-12.666-5.666s0,4,0,4
			s8.333,7.666,11.666,11.333c3.333,3.667,1.334,3.333,1.334,3.333l-5.667,2.334c0,0,9.667,8.333,10.667,11.666c1,3.333-1,14-1,14
			l-6-7.333c0,0,2.333,0.333,0,4.333s-16.667,2-16.667,2l9.667,10.667l-14-2.333l5,2.666l-5.334,3l-1,4.334l-6-3l0.334,4.333l1,9
			l-2.334,5.333l-3-2.333l-6.666-7l-14.334-15l-0.666,4l4,5.333l7.333,5.334l-4.333,2l-8.667-3l-5.333-3.334l-0.334,2.334
			l1.667,7.333l-6.333-1.667l-6.667-6l3.333,9l-0.666,4.667l-8-11l-0.334,3.667l5.667,10.666h-3l-8.667-9.666l-0.667-3.667l-3-4.333
			l-1,3.666l-2.333,6l-3,2.334c0,0,0.667-2.667,0.667-3.667s-4-0.333-4-0.333s-6,9.333-7.334,11.666c-1.333,2.333-5,4.667-5.666,3
			c-0.667-1.667,1-5.333,1-5.333s2.666-6.667,2.666-10s-2-2-2-2l-12.666,10.333l-4.667,1.667l-0.667-2.667v-6.666l-2-3.334l-4,3
			l-2.333,7.667l-4.333,2l-3.667,1.333l-4.333,1l-1.334,5h-4c0,0,0.667-3,2-5c1.334-2-1-2-1-2l-6,7l-2-3c0,0,1-2.333,0.667-3.333
			c-0.333-1-2.667-1.333-2.667-1.333l-4.333,2.667l-0.667-3.667l-1.333-3.667l-1.667-3l-2.666-5.333l0.666-2.667l-1.333-6.333l-3,1
			l0.333-3l0.667-3.667l-5,5l-3,3.334l-4.333,3.666l-3.334-2.333l-2.333-3.667l-3.333-4l-1.667-4.666l-1-2.334l2.667-2.333
			c0,0-2.667,2.333-3.667,1.667s0-5,0-5l3.667-7l-4,2c0,0-5.334,0.333-6.334,0s-7.333,0-7.333,0l-4.333-3.334l-0.667-1.666
			l5.667-3.334l3.666-4l-3.333-1.666h-4l-2.333-2.667l-0.334-3.333l4.334-6.334h-4.667h-4.333l-1.667-2l1-5.667l1-2.333
			l-2.333,2.333l-3.667-3.333l3-2.333c0,0-1.333-0.333-4-1c-2.667-0.667-3.333,1-3.333,1l-3.667-1.333l1-4.334l4.667-3.666l4-2
			l4.333-3l2-4.334l-0.333-6.666l1.666-2.334l-1.666-5l-3.334-4l-5,1.333l-3.333-0.666l-2.667-5.334v-4c0,0-3.666-3.666-4.666-4.333
			s-3.667-5.667-3.667-5.667s-0.333-5.333,0.333-6.333c0.667-1,1.334-3.667,1.334-3.667l-2-6l-0.334-8.333l2-6l2.334-3l4.333-0.667
			l3.333,1l6-0.666l6-0.667l-2-7.333l-3-2.334l-2-4l1.334-4.333l-1.667-2l1.333-2.667l1-2l-1.333-2.333l-0.667-3.667l0.667-2
			l-0.667-3v-2.666l-2.333-2.667l3.333-2.667l-2-6l-0.666-2l-2.334-2.333c0,0-1.333-5.667-1.666-6.667s-2.334-5-3.334-6.333
			c-1-1.333-2-0.333-2-0.333l-5.333-1.334l-2.333-2.333l1.333-2.333l0.667-2.334l0.666-3l-0.333-2l3.333-0.666l-1.333-3.334
			l-4-2.333l-1.667-4.667l3.667-2.666l1.333-3l-1.333-6.667l-4.333-1l-2.667-3l1.333-2l0.667-2l-2-4l-4-4c-1-1-2.667-4-3.667-5
			s-2.333-4-2.333-4l2-2.333l-4.667-4l-4.333-4l0.333-3.667l0.334-4.389l4,5.389l2.666,6.333l6,6l1.667,5.334l4.333,3.333l4.667,3
			l2.667,3l7.333,9.333l3.333,6.334l2,6.666v4.667l-0.333,5.333c0,0,3,9,3.333,10c0.334,1,2.334,5,2.334,5l5,14.667l0.333,8.333
			c0,0,2.333,8.667,2.667,10c0.333,1.333,0,8,0,8l0.333,9.334l2.333,9.666l-2.333,7l2.667,5.334l-0.667,5.333l-2.333,6.333l-2,5
			l-3.334,2.334l-0.333,3l1.333,1.666l2,1.667l1.334,3l-3.667,1l-0.333,2.667l1.333,3.666l3.333,0.667l3.667-0.667l1,3l2,1.334
			l2,1.333l-2.333,5.667l1.333,3l1,1.666l0.333,4l2.667,3l2.333,7.334l1.667,4l-2.333,3.333l5.333,4.333l5,1l4,1.667v3h2.333
			l4.334-1.333l3.333-0.667c0,0,5.333,0,9.333,1.333h14l6.334-0.666l5.666-0.667l3.667,2.333l-5.333,1.667l-3.667,2.667l3,2.666
			h7.333l6.334-2h9.333l5-3l4.333-2.667l5.334-3l5.333-2.333l5.333-3h5.334h7.333l5.667-3.333h8.667l3.666-1.334l2-2.333
			l4.667-2.333h6.667l2.666-2.667h-5.333c-1,0-1.667-3-1.667-3h-3.666l3-3l7-1.667c0,0-1.334-2-2.334-3.333c-1-1.333-2,0-2,0
			l1-3.667h6.334l4-2h3.333l3.333-3.666l3.334-3l3-4.334l3.333-2l6.667-3l4-4.333h3.666l4.334-3l2-4.667l1.666-3v-4h2.334l-4.334-6
			l1.334-3.333h3.666h2.667l2-5.333l-1.667-4.667l0.334-4l-1.667-4.667l-0.333-3.667l4.333,3.667h3l-3.667-5.667
			c0,0-1.333-3.666-1.666-5s0-3.333,0-3.333l-2-1.667l-1.334-4l3.334-3l0.666,3c0,0-0.666-3-0.666-4.666
			c0-1.666,2.666-2.667,2.666-2.667s-1.666-6.333-2.666-7.667c-1-1.334-4-4-4-4l-0.334-5.666h2.334h3.333l-1.667-3l-1.666-4h4.333
			h3.667l-1-2.667l5.333-1.667l-3-2.333l-4.333-1.667v4h-3.334l-2.666-6v-7.333v-11l-2.667-10l-1.667-8.667v-6.333v-7.333
			l-3.666-7.334l-3-8.666l-2.667-6.722c0,0-1.333-8.278-1.333-9.278s-2-4-2-4l2-3.406v-4.594l-2-5l-4-6l-3.667-8l-2.667-5.667
			l-2.333-3.666l-3.667-4l-4.333-3.667l-5-5l-5.334-4l-8-2l-3.333-2l-5-0.667l-3,0.667l-3.667-1l-5-3.667h-6h-3h-2.333l-5-3.333
			l-3-2l-5.333-0.333l-5.334,2l-5,1l-2.333,1.666l-6.667,0.667l-3.333,0.667l-3-0.334l-0.333-2.666l-4-0.667l-1.667-1.333l-5-0.667
			l-3,2l-3.667-0.667l-5.333-1l-6-0.333l-2-1l-5.333-0.333l3.666-3l1.334-2.667l-7,0.333l-4.334,3.334h-2
			c-2,0-4.666-0.334-5.666-0.334s-3,0.334-3,0.334l-3.334-2.334c0,0-3.333-3.333-5.166-3.333s1.833-2.667,1.833-2.667l4-1.333l-2-3
			l-3.833,1l-2.167-0.333l-2-4.667c0,0-0.333-2-1.667-3.333c-1.333-1.334-1.333-2.667-1.333-2.667l3-0.333v-2.334l-3.333-3.333
			l0.333-5l3-3l-1.667-4l1.334-4.667l1.333-2.333l3.167-2l1.5-3l-1.5-2.667v-3l3.833-2.333l3.667,1l4.333-1.667l2.667-1.666
			c0,0,2.333-3.667-0.334-2.667c-2.666,1-3.666,0-3.666,0l-0.667-4.333c0,0,1-1.667,3.667-2.667c2.666-1,0,0,1-0.667
			s3.333-1.333,3.333-1.333l2-3l-1.667-1.667l1.667-2.666l-1-3.667l5-2.333l1-1.667l2.333-1.667l3-2.666l2-3.334l5-1l4.334-1.333
			l-0.667-3l3.667-2.333l3.333-2.667l3.667-3l-0.667-2l2-2.276l2.667-2.391l2.333-0.333l1.333-2l-1-2.333l2.334-0.667l0.666-3.333
			h-3.666l-5.334,0.666l0.334,2.667l-0.667,3l-3,2.333l-1,2.391h-1.667l-2,4.276l-2,3.333l-3-0.333l1.667-1.333l-1-3.667l-3,0.667
			h-6.667l-5,1.333h-9.666l-4,2l-7,1l-2.667,0.333l-5,1.667l-4,2l-2.667,1.667l-3.333,1.333h-7l-4.333-1l-2.667-2l-2,4.333
			l-3.333,0.334l-3.334-1l-5.333-0.667l-3.333,2l-6.667-0.667l-1-2c0,0-3-1.666-4-2.333c-1-0.666-4,0-4,0h-2.333l-3.334,4l-4,1.333
			l-4.333,3.334l-3,4l4.333,3.333l5,3.333l3.334,2.334l5.666,3.333l3,3.333l2.667,3.667l-2.333,1.667l-4,0.333l-1.667,2.333v2.667
			h3.333l-0.333,4c0,0,0.667,2.333,2.667,3l4.333,3l1.333-0.667l4.667,2.667l-1.333,2.333l1.333,1.667h5l1.667,2.667l3.666,4
			l2.667,4.333l2,5v6l-1.333,2.667l-1.334,1.666l3,1.667l0.667,4.667l-0.667,2.666l1.334,1.667l1.333,2l0.333,3l-3.333,0.667
			l-2.667-1h-2.333l-1.667,0.333l-0.666,3.333l-1,4.334l-4,1.666l-2.334,3.667l-7.333,4l-4,1l-4,1l-6,2l-4,1l-3.667,1.667l0.667,2
			l0.667,1.333l-5.667,0.667l-3,1.666l-1.835,1.346l-3.165,2.321l5.667,3c0,0-3.667,2.333-4.667,3s1,2,1,2l1,5l-3,1.667h-4
			l-3.333-3.334l-3.334,0.667l-3.333-1.667l-2-0.333l-2-2.333l-2-1.667l-1.333,3l2,3.333l3,3.667l2.333,2.667
			c0,0-2.667,9.238-2.667,8c0-1.239-1.333-3.667-1.666-4.667c-0.334-1-0.667-1.667-0.667-1.667l-3-2.666l-3.333-2l-3.667-1.667
			l-1.667-2l-2.666-1.667l-4.667,3.667h-6l2-3l1.667-3.333l-0.334-2.667l-2.333-3.333l2-2.667l-0.333-4.333l-2.667-6.334l-3-3.333
			l-2.667-6.667l-3-4.666l-1.666-5.667l-0.667-8l1-4.333l2-3l2-5l-2.333-3l-2.667-1.334l-2-2.666v-2.667l1.333-2.333v-3.334v-3.666
			v-5.334l4.667-2l2.667-3.666v-3.334l0.333-3l-0.333-5l-2.667-5.666l3-5.334v-2.333v-5h4.333l6.334-2.333l5-1.334l-0.334-2
			l-4.333-1.666l1.667-2.334l2.666-2.666l2.667-2l-1.333-2l-2-1.667h-5.667l4.667-2.667v-4l2-3.666l-2-3l2-1.334l4-2.333
			l2.666-3.667l-2.666-2v-3.333l2.666-2.333l2.667-2.334l-2.667-5l4.334-2.666l0.666-2.334l-1-2l2-4l-4.333-3h2.333l2.667-3h-3.667
			l-1.333-1.666l8.667-3.334l2.666-3h-2.666v-1.333h5.666l2.667-2.333l1.667-1.667l1.666-2.667l2-2.666v-4.334l3.667-2.333v-3
			l2.333-3.667l4.667-2v-3l3.333-3l4.334-1.666l4.666-2v-4v-3l3-4.334l2.334-3.333l3.333-4l2.667-3.333l3-4l3.333-2.667l3-4.333
			l2.667-3.667l9.333-3l11.667-2.667l7.333-3.333h6.333l2-4h4.667l3.667-1.333l4.666-2.667l5.334-3.333h5.333l4.333-3.334
			l6.667-1.666l5.667-2.667l9.666-2l4.667-4.333l9.667-4.334l7.666-3.166l7.334-4.5h21.666l47.001,9L714.625,40.543z"/>
	</g>
	<g>
		<defs>
			<rect id="SVGID_1_" x="398.976" y="0" width="397.201" height="299.569"/>
		</defs>
		<clipPath id="SVGID_2_">
			<use xlink:href="#SVGID_1_"  overflow="visible"/>
		</clipPath>
		<g clip-path="url(#SVGID_2_)">
			<defs>
				<rect id="SVGID_3_" x="398.977" y="-6.911" width="397.2" height="306.48"/>
			</defs>
			<clipPath id="SVGID_4_">
				<use xlink:href="#SVGID_3_"  overflow="visible"/>
			</clipPath>
			<g clip-path="url(#SVGID_4_)">
				
					<image overflow="visible" width="1655" height="1277" xlink:href="2CD12305F32211E1.png"  transform="matrix(0.24 0 0 0.24 398.9766 -6.9111)">
				</image>
			</g>
		</g>
	</g>
	<g>
		<defs>
			<rect id="SVGID_5_" x="719.219" y="116.934" width="239.782" height="222.48"/>
		</defs>
		<clipPath id="SVGID_6_">
			<use xlink:href="#SVGID_5_"  overflow="visible"/>
		</clipPath>
		<g clip-path="url(#SVGID_6_)">
			<defs>
				<rect id="SVGID_7_" x="719.219" y="116.934" width="240.48" height="222.48"/>
			</defs>
			<clipPath id="SVGID_8_">
				<use xlink:href="#SVGID_7_"  overflow="visible"/>
			</clipPath>
			<g clip-path="url(#SVGID_8_)">
				
					<image overflow="visible" width="1002" height="927" xlink:href="2CD12305F32211E3.png"  transform="matrix(0.24 0 0 0.24 719.2188 116.9336)">
				</image>
			</g>
		</g>
	</g>
	<g>
		<defs>
			<rect id="SVGID_9_" x="767.097" y="166.823" width="191.903" height="226.32"/>
		</defs>
		<clipPath id="SVGID_10_">
			<use xlink:href="#SVGID_9_"  overflow="visible"/>
		</clipPath>
		<g clip-path="url(#SVGID_10_)">
			<defs>
				<rect id="SVGID_11_" x="767.097" y="166.823" width="193.2" height="226.32"/>
			</defs>
			<clipPath id="SVGID_12_">
				<use xlink:href="#SVGID_11_"  overflow="visible"/>
			</clipPath>
			<g clip-path="url(#SVGID_12_)">
				
					<image overflow="visible" width="805" height="943" xlink:href="2CD12305F32211E6.png"  transform="matrix(0.24 0 0 0.24 767.0967 166.8232)">
				</image>
			</g>
		</g>
	</g>
	<g>
		<g>
			<defs>
				<rect id="SVGID_13_" x="613.667" y="89.097" width="252.24" height="355.2"/>
			</defs>
			<clipPath id="SVGID_14_">
				<use xlink:href="#SVGID_13_"  overflow="visible"/>
			</clipPath>
			<g clip-path="url(#SVGID_14_)">
				<defs>
					<rect id="SVGID_15_" x="613.667" y="89.097" width="252.24" height="355.2"/>
				</defs>
				<clipPath id="SVGID_16_">
					<use xlink:href="#SVGID_15_"  overflow="visible"/>
				</clipPath>
				<g clip-path="url(#SVGID_16_)">
					
						<image overflow="visible" width="1051" height="1480" xlink:href="2CD12305F32211E7.png"  transform="matrix(0.24 0 0 0.24 613.667 89.0972)">
					</image>
				</g>
			</g>
		</g>
	</g>
	<g>
		<path fill="#FFFFFF" d="M555.833,542.834c-1.167,5-1.833,5.833-1.667,9.5c0.167,3.667,0.642,5.167,0.821,8.167
			c0.179,3,0.346,5.333,1.679,9.333c1.334,4,2,6,3.334,8.5c1.333,2.5,4,5.5,5.333,7.5c1.333,2,0.833,3,3.667,4.5
			c2.833,1.5,4.666,2.833,5.833,3.5c1.167,0.667,4,2,5.167,3c1.166,1,3.166,1.667,3.166,1.667h3.167l2.333-1.667l-1.333-2.833
			c0,0-1.167-3.334-0.667-3.834s1.667-2.999,2-3.666c0.334-0.667,5.167-7.834,5.167-7.834s2-2.166,3.167-2.333
			c1.166-0.167,4.166-2,4.166-2l-1.5-2c0,0-5.666-4.001-5.833-4.667c-0.167-0.666-3.167-4.333-4.167-4.333s-1,2.5-1,2.5l1.167,1.833
			c0,0,0,2.001-0.667,1.834c-0.666-0.167-2.166-2-3.666-2.5s-4.334-2.834-4.334-2.834s-10.666-8.5-11.5-9.5c-0.833-1-9-9-9-9
			L555.833,542.834z"/>
		<path fill="#FFFFFF" d="M595.667,585.834h2.833l2.667-2.333c0,0,1.833-0.667,2.333-0.667s1.5,0.167,2.667,0
			c1.167-0.167,5.5-2.333,5.5-2.333h1.833c0,0,2.5,0.334,3,0c0.5-0.334,3.167-2,3.167-2l2.833,0.833c0,0-0.166,0.667,0.834,0.667
			s2.5-0.667,3-0.667s3.5-0.833,3.5-0.833s3.166-1.166,3.166,0c0,1.166,0.5,1.666,1,1.666s2.5-1,2.5-1s2-0.166,2.5,0.167
			s2.667,1.667,2.667,1.667h1.667c0,0,3.333-1,3.5-1.5c0.166-0.5,1.333-1.519,1.333-1.519l2.167,4.685l2.5,2.334v2.166
			c0,0.667-1.295,2.834-1.295,2.834l-2.872,1.833c0,0-2.5,0.833-3.167,0.833c-0.666,0-3.167-0.5-4-1.333
			c-0.833-0.833-0.833-1.333-1.666-1.333c-0.834,0-2.5,0.166-2.5,0.166l-2.334,0.5l-3-1.5c0,0-1.166,0.333-1.833,0.5
			c-0.667,0.167-5,1.834-5,1.834s-3.333-0.666-5-1c-1.667-0.334-2.833-0.334-3-0.834c-0.167-0.5-2-1-1.833-0.5
			c0.166,0.5,1.166,3.5,1.166,3.5s-1.5-0.5-2,0s-3.5,0-3.5,0l-3.166-0.833l-1.667,1.056h-3L603,594.834c0,0-2,0.167-2.833,0
			c-0.833-0.167-2.167-0.667-2.167-0.667l-5.166-4l1.166-3L595.667,585.834z"/>
		<path fill="#FFFFFF" d="M661,586.445c0,0-2.833-5.61-3.167-6.277c-0.333-0.667-1.499-0.871-1.166-2.186
			c0.333-1.314,0.715-2.982-0.059-3.648c-0.775-0.666-1.774-2.999-1.441-3.666c0.333-0.667,1.667-2.334,2-3.334s0-3.5-0.167-4.333
			c-0.167-0.833-0.5-2.667-0.667-4.167c-0.166-1.5,1.935-6.334,1.718-7c-0.218-0.666,0.282-2.889,0.949-3.695
			c0.667-0.805,2.667-5.972,3.333-6.805c0.667-0.833,1.167-2.166,1.667-2.166h2.167c0,0,5.333,5.666,5.833,6.166
			s2,3.334,3.167,4.667c1.166,1.333,3.166,4.501,3.333,5.167c0.167,0.666,1.334,4.166,1.334,4.166l1.5,3.472l1,4.362v3.5
			L680,573.334c0,0-1.667-1.666-2-0.833c-0.333,0.833-0.667,2.5-1,3c-0.333,0.5-1.5,5.333-1.5,5.333l-1.5,1.667l-2.5,0.333
			c0,0-2.564-0.5-2.782,0c-0.218,0.5-0.718,1.834-0.718,1.834l-1.167,1.777l-4.166,0.889L661,586.445z"/>
		<path fill="#FFFFFF" d="M669.5,335.168l5.572,4.167c0,0,2.096,4.999,2.762,5.666s1.832,4.667,2.166,5.167
			c0.334,0.5,1.834,4.5,1.834,4.5s2-1.834,2.333-2.667s1.667-4.5,2-5.333c0.333-0.833-1.167-6.833-1.167-6.833l-2-4.667
			l-2.833-1.833l-5.095-1H672l-2.5,1.166V335.168z"/>
		<path fill="#FFFFFF" d="M651.893,334.807l-0.234,1.44l-0.826,5.087c0,0,0.501,5.834,0.584,6.334s0.916,6.167,0.583,11.5
			c-0.333,5.333,0.167,3.167-1.167,13.5c-1.333,10.333-2.333,13.666-3.833,18.666s-3.167,10.501-5.5,15.334
			c-2.333,4.833-3,5.5-3,5.5l-4.5-15.5l-6-21.834l-4.333-16.833l-2.667-14.5l-2-9.333l-1.333-1.834l-0.667-3.5l2.5-2.333
			c0,0,2.667-3.5,3.167-3.5s4.708-0.54,5.833-0.833s4,2.166,4,2.166l4.167,0.334c0,0,6.333,1.666,6.666,2.166
			c0.334,0.5,0.667,3.334,1.167,3.834s3,3.5,3,3.5l2.5-1.834l2.078,1.334L651.893,334.807z"/>
		<path fill="#FFFFFF" d="M595,327.501v4.833c0,0-1.333,2.167-1.167,2.834c0.167,0.666,1.167,5,1.167,5v4.166l-1.181,3.5
			L592,351.168l-1.5,2.166h-2.833l-1.167-3l-2.5-3.833c0,0,0.333-2.167,0-3c-0.333-0.833-0.5-3.166,0-3.833c0.5-0.667,0.5-4,1-4
			s0.833-1.834,0.833-1.834l-4.333,1.167c0,0,0.5-2,0-2.667c-0.5-0.666-0.667-4.833-0.667-4.833l3.667-2
			c0,0,2.834,0.667,3.417,1.167s1.583,0.833,1.583,0.833l1.333-3.167c0,0,1.334,0.5,2.167,0c0.833-0.5,2,1,2,1V327.501z"/>
		<path fill="#FFFFFF" d="M578.167,341.501l-1-2.718l0.5-3.449l-1.5-2.166l-3.833,1.833l-3.167,1.333h-2.167
			c-0.5,0-2.833-0.5-2.833-0.5l-4.5,0.334l-2.333,2.615c0,0-0.333,0.885,0,1.551c0.333,0.667,2.666,5.834,2.666,5.834l1.5,2.333
			c0,0,1.167,1.5,1.834,0c0.666-1.5,1.666-3.167,2.333-3.667c0.667-0.5,2.009-3.666,2.009-3.666s1.658-1.334,2.324-0.834
			c0.667,0.5,2,3,2,3.5s1.167,3.5,1.167,3.5s0,2,1.333,0.667l3.667-3.667V341.501z"/>
		<path fill="#FFFFFF" d="M552.5,338.783l-2.167-1.449h-2.5l-2.333,0.724l-2.167,1.776c0,0,0.834,5.5,1.334,6s3.25,4,3.25,4
			l0.75,1.667c0,0,2.333-2.001,2.5-2.334c0.166-0.333,1.333-4.749,1.333-4.749V338.783z"/>
		<path fill="#FFFFFF" d="M535.167,351.501v-4.5l2.167-2.583l1.166-5.635l-2.333-2.282l-2.333-2.333l-3,1.666l-3.667,1.5l1,2.5
			l0.167,3l-0.5,2.5l1.333,2.667c0,0,2.5,1.833,2.5,2.333s2.833,2.333,2.833,2.333L535.167,351.501z"/>
		<path fill="#FFFFFF" d="M521.667,354.335v-5.167v-4.75l2.333-3.25l0.834-2.384l0.833-2.449c0,0-4.167-1-4,0
			c0.167,1-1.5,3.5-1.5,3.5v-2.5l-2.333-2.5l-2.167,2.5v6.083v5.084l2.167,4.165l2.833,2.501L521.667,354.335z"/>
		<path fill="#FFFFFF" d="M514.667,354.335l1,2.833l-2,6.834l-0.833,3.833l-1.334,4.667c0,0-0.666,2.833-0.833,7.666
			c-0.167,4.834-1,19.667-1,19.667s0.667,7.833,1,8.333c0.333,0.5,0.833,4,0.833,4l1.167,3.334l-7-6.667c0,0-6-8.667-6-9.5
			c0-0.833-4-10.167-4.5-11.833c-0.5-1.667-2.167-9.5-2.5-11.5c-0.333-2-1.167-14.167-1.167-14.167l0.834-7.5l1.833-8l1.833-2.917
			l-0.333-2.25l-3.5-3.833c0,0-0.27-2.799,0.333-3.167c0.604-0.368,4.834,0.667,4.834,0.667l2.5-0.746l-1.667,4.695l-0.333,2.384
			l0.666,3.25c0,0-0.499,1.084-0.166,1.917c0.333,0.833,0.5,2.833,0.5,2.833s1.333,0.333,2,0c0.666-0.333,4.833-1.833,4.833-1.833
			l0.333,1.833l-2.416,3.499l-3.417,0.668l-0.333,1.833c0,0-0.333,3-0.5,3.667c-0.167,0.667-2.334,5-2.334,5l1.167,6.5l0.833,5.167
			l2.667,7l1.917,1.833v-18.5l1.75-7c0,0,2.666-3.5,3.166-3.667c0.5-0.166,3.167-2.501,3.167-2.501L514.667,354.335z"/>
	</g>
	<g>
		<defs>
			<rect id="SVGID_17_" x="525.733" y="530.791" width="88.321" height="100.8"/>
		</defs>
		<clipPath id="SVGID_18_">
			<use xlink:href="#SVGID_17_"  overflow="visible"/>
		</clipPath>
		<g clip-path="url(#SVGID_18_)">
			<defs>
				<rect id="SVGID_19_" x="525.733" y="530.791" width="88.32" height="100.8"/>
			</defs>
			<clipPath id="SVGID_20_">
				<use xlink:href="#SVGID_19_"  overflow="visible"/>
			</clipPath>
			<g clip-path="url(#SVGID_20_)">
				
					<image overflow="visible" width="368" height="420" xlink:href="2CD12305F32211E2.png"  transform="matrix(0.24 0 0 0.24 525.7334 530.791)">
				</image>
			</g>
		</g>
	</g>
	<g>
		<defs>
			<rect id="SVGID_21_" x="641.999" y="525.25" width="76.56" height="84.24"/>
		</defs>
		<clipPath id="SVGID_22_">
			<use xlink:href="#SVGID_21_"  overflow="visible"/>
		</clipPath>
		<g clip-path="url(#SVGID_22_)">
			<defs>
				<rect id="SVGID_23_" x="641.999" y="525.25" width="76.56" height="84.24"/>
			</defs>
			<clipPath id="SVGID_24_">
				<use xlink:href="#SVGID_23_"  overflow="visible"/>
			</clipPath>
			<g clip-path="url(#SVGID_24_)">
				
					<image overflow="visible" width="319" height="351" xlink:href="2CD12305F32211ED.png"  transform="matrix(0.24 0 0 0.24 641.999 525.25)">
				</image>
			</g>
		</g>
	</g>
	<g>
		<defs>
			<rect id="SVGID_25_" x="606.535" y="291.516" width="78.72" height="108"/>
		</defs>
		<clipPath id="SVGID_26_">
			<use xlink:href="#SVGID_25_"  overflow="visible"/>
		</clipPath>
		<g clip-path="url(#SVGID_26_)">
			<defs>
				<rect id="SVGID_27_" x="606.536" y="291.516" width="78.72" height="108"/>
			</defs>
			<clipPath id="SVGID_28_">
				<use xlink:href="#SVGID_27_"  overflow="visible"/>
			</clipPath>
			<g transform="matrix(1 0 0 1 0 0)" clip-path="url(#SVGID_28_)">
				
					<image overflow="visible" width="328" height="450" xlink:href="2CD12305F32211EE.png"  transform="matrix(0.24 0 0 0.24 606.5356 291.5156)">
				</image>
			</g>
		</g>
	</g>
	<g>
		<defs>
			<rect id="SVGID_29_" x="467.5" y="319.109" width="77.28" height="107.28"/>
		</defs>
		<clipPath id="SVGID_30_">
			<use xlink:href="#SVGID_29_"  overflow="visible"/>
		</clipPath>
		<g clip-path="url(#SVGID_30_)">
			<defs>
				<rect id="SVGID_31_" x="467.5" y="319.109" width="77.28" height="107.28"/>
			</defs>
			<clipPath id="SVGID_32_">
				<use xlink:href="#SVGID_31_"  overflow="visible"/>
			</clipPath>
			<g clip-path="url(#SVGID_32_)">
				
					<image overflow="visible" width="322" height="447" xlink:href="2CD12305F32211EF.png"  transform="matrix(0.24 0 0 0.24 467.5 319.1094)">
				</image>
			</g>
		</g>
	</g>
	<g>
		<path d="M689.875,180.75c0,0-2.5-2-3.125-2.25s-4.25-3-5-3.5s-3.625-1.75-4.25-1.875s-4.25-2.375-4.75-2.625
			s-1.25-1.25-1.75-1.875s-1.5-2.5-2.125-3.125s-2.125-3.125-2.875-3.875s-1.625-2.375-1.875-2.875s-2.875-1-3.125-1.375
			S660,156,660,156s1.5-2.125,1.625-2.625s0.75-1.5,0.375-1.5s-2.25-2-2.25-2s-1-0.125-1.875-0.125s-2.25,0.125-3.125-0.25
			s-1.125-2-2.125-3s0.375-0.875,1-0.875s3.375-0.25,3.375-0.25s2.5,0.125,3.5,0.125s-0.5,1.375,0,2.125s1,1.125,1.625,1.25
			s2.625-0.375,3.625-0.625s3.375,0,3.75-0.25s1.25-0.75,1.875-0.875s2.75,0,2.75,0s-2.75,2-2.375,2.75s3.875,0,3.875,0
			s3.25,0.375,3.625,0s2.375-1.125,2.375-1.125s2-0.75,3.25-1s2.875-0.125,4.125-0.125s0.5,0.875,0.75,1.375s2.875,0.75,4,0.875
			s3.375-0.625,3.375-0.625S698.75,151,699.5,151h3.25c1,0,2,0.625,2.375,0.875s2.375,1.5,3.125,2s1.625-0.25,1.75-0.625
			s3.5-1.625,4.5-2.375s2-1.375,3.25-1.75s2.375-1.75,3.625-3S723.5,145,725.25,144.5s3.625-1.625,5.125-2.125
			s3.75-1.125,4.75-1.125s3.5,1.125,3.5,1.125s-0.875,0.375-2.625,0.75s0,1.75,0,2.25s1.25,0.25,2.25-0.25s1.625-1.125,1.625-1.125
			l3-1.5c0.5-0.25,2.75-0.125,3.875-0.125s2.625-0.375,2.625-0.375s2-1.125,2.625-1.25s3.375,0,4.125,0S759,141.625,759.5,142
			s0,1.125-0.75,1.625s-6.25-0.25-6.625,0s0.875,1.375,1.5,2s3.75,0,3.75,0h3.25v1.75l-1.125,1.5l0.375,2.25l0.75,1.906l2.625,1.219
			c0,0-1.75,1.375-2.75,2s-1.25,1-1.875,1.625s-3.25,2.375-3.25,2.375l-6.75,3.25c0,0-7.5,2.125-7.875,2.25s-2.77,1.125-2.77,1.125
			L733,167c0,0-2.75,1.25-4,2s-3.5,1.125-5.375,1.5s-1.625,0.25-2.375,0.375s-2.625-0.75-2.625-0.75s-0.875-2.5-0.875-2.875
			s-0.875-0.875-1.25-0.875s-3.125-0.125-3.875-0.25s-1-0.5-1.5-1.25l-1-1.5c0,0-1.5-0.75-2.125-0.875s-3.875-0.5-4.75-0.75
			s-2.5-1-3.375-1.125s-2.75-2.125-2.75-2.125l-1-2.125c0,0-3-0.125-3.375-0.25S689,155.25,689,155.25s-2-1.25-2.625-1.931
			c-0.625-0.68-2.875,0.056-2.875,0.056s-2.25-0.125-2.625,0s-1.875,0.75-1.875,0.75s-3-0.125-3.875,0s-2.75,0-3.5,0
			s-1.5,2.5-1.5,2.5s0.5,2.375,0.625,3s3.125,0,3.5,0s1.625,1.875,1.625,1.875l-1,2.25l3.875,3.875c0.75,0.75,3,3.375,3.5,4
			s4.875,2.75,4.875,2.75S697,178.25,698,179.5s8,0,8,0l3,2c0,0,4,4.75,4.75,5.25s3.25,1.5,3.25,1.5l9,2.25l-0.5,2.25l1.75,4.5
			l3.25,5.25l2,5.25l5.48,7.388L735,211.5c0,0-5.707-3.588-6.499-4.732C727.709,205.623,718.25,196,717.5,195.75
			S706,189.5,705.25,189s-12.75-7.5-12.75-7.5L689.875,180.75z"/>
	</g>
	<g>
		<path d="M597,138.167c0,0,6.333,1.167,6.833,1.167s5,0.333,5.667,0c0.667-0.334,5.5-1.167,6-1.167s8.5-0.167,9.167,0
			c0.666,0.167,11.666,0.574,12.333,0.621c0.667,0.046,5-0.213,5.667,0c0.666,0.212,4.833,0,4.833,0s6.543-0.954,4.771-1.788
			c-1.771-0.833-1.771-1.666-2.938-2c-1.166-0.333-7.833,0-7.833,0s-2,0.205-3-0.147c-1-0.353-5.333,0.018-5.833,0
			c-0.5-0.019-4.5-0.153-4.5-0.153l-4.834-1.533c0,0-4.333-0.166-5,0c-0.666,0.167-3-1.333-5.833-1.5
			c-2.833-0.167-4.166,0.167-5.833,0c-1.667-0.167-6.5-0.429-7.334-0.048c-0.833,0.381-5.166,0.881-5.166,0.881
			s-3.5,0.167-4.167,0.167c-0.667,0-3.667,0.5-4.5,0.5c-0.833,0-2.5,0.167-3.333-0.167c-0.834-0.333-2.5-0.5-3-0.5s-3.5,0.5-4,0.5
			s-3.667,1.167-4.334,1.334c-0.666,0.166-1.833,1.119-1.833,1.119h-2.833H563.5l-5.5,0.881l-4.833,1.166
			c0,0-5.334-0.166-6.167,0.167c-0.833,0.333-3.667,1.796-5.5,1.815c-1.833,0.018-7.438,1.018-8.188,1.456
			c-0.75,0.437-4.437,2.125-4.437,2.125s-4,1.625-4.625,1.875s-2.625,1.687-3,1.875c-0.375,0.187-1.25,1-1.563,1.125
			c-0.312,0.125-3.812,1.125-5.187,1.5s-6.125,2.625-6.688,2.875c-0.562,0.25-3.937,2.187-3.937,2.187s-4.938,3.938-5.25,4.125
			c-0.313,0.188-2.125,1.125-2.938,1.125c-0.812,0-3.625,0.938-4.187,1.125c-0.563,0.188-3.188-0.312-3.938-0.437
			s-2.437-1.25-2.875-1.313c-0.437-0.062-2.812-0.562-3.312-0.562s-2.188,0.125-2.688,0.437c-0.5,0.313-1.125,1.25-1.125,1.25
			s0.625,0.813,0.813,1c0.187,0.188,0.75,0.75,0.812,1.125c0.063,0.375-0.312,1.375-0.375,1.625c-0.062,0.25-0.375,0.625-0.5,1
			s-0.187,1.438-0.187,1.438s0.125,0.187,0.375,0.375c0.25,0.187,1.125,1.312,1.125,1.312s0.687,0.625,0.25,1.125
			c-0.438,0.5-1.125,1.813-1.125,1.813s-1.25,1-1.875,1.25s-1.875,0.75-2,1.062c-0.125,0.313,0.125,1.5,0.625,1.75
			s1.687,0.25,2.062,0.313c0.375,0.062,1.75,0.375,1.938,0.5c0.187,0.125,1.312,0.687,1.312,0.687l0.75,0.375
			c0,0,1,0.063,1.313-0.312c0.312-0.375,1.5-1,1.687-1.188c0.188-0.187,0.688-0.687,1.375-1.187c0.688-0.5,2.188-1.063,2.563-1.5
			c0.375-0.438,0.75-1.25,1.125-1.813c0.375-0.562,1.062-1.312,1.375-1.75c0.312-0.437,1.562-1.5,1.687-1.75
			s0.313-0.625,0.688-0.812c0.375-0.188,1-0.625,1.5-0.75s0.875-0.5,1.125-0.563c0.25-0.062,0.625-0.562,0.875-0.875
			c0.25-0.312,0.562-0.625,0.625-1.25c0.062-0.625,0.187-1.375,0.375-1.687c0.187-0.313,0.625-1.25,0.687-1.625
			c0.063-0.375,0.75-0.875,1.438-1.5c0.687-0.625,3.812-3.375,3.812-3.375l5.875-3l5.813-2.375l5.625-1.563l2.312-0.437l1.813-0.188
			l2.25-0.812c0,0,2.687-0.688,3.125-0.75c0.437-0.063,2.875-0.5,3.062-0.563c0.188-0.062,4.063-1.25,4.313-1.25
			s5.062-1.625,5.812-1.812c0.75-0.188,3.938-1.313,4.625-1.5c0.688-0.188,3.313-1.125,3.625-1.25c0.313-0.125,2.5-1.375,2.5-1.375
			s2.438-0.5,2.688-0.5s3.75-0.313,4.187-0.063c0.438,0.25,1.669,0,2.272,0c0.603,0,2.228,0.125,2.853,0.188
			c0.625,0.062,2,0.625,2.438,0.75c0.437,0.125,3.125-0.063,3.312-0.125c0.188-0.063,6.75-0.938,7.688-1.063
			c0.937-0.125,4.875-2,5.125-2s3.937-0.562,5.062-0.562s2.813-0.125,3.75,0.187c0.938,0.313,2.563,0.875,2.625,1.063
			C596.625,136.25,597,138.167,597,138.167"/>
	</g>
	<g>
		<path fill="#79B829" d="M744.583,398.5c0,0-0.677,2.389-0.5,2.834c0.177,0.445,0.997,2.559,0.997,2.559s0.337,2.453,0.92,2.655
			s0.915,2.645,1.113,3.218c0.199,0.572,0.637,2.652,0.637,3.318s1.249,2.417,1.333,3c0.084,0.583,0.584,1.667,0.667,2.25
			s0.417,1.749,0,2.166c-0.417,0.417-0.667,1.251-0.917,1.584s0.084,2.5,0.167,3.333c0.083,0.833,0.91,3.667,0.955,4.417
			c0.045,0.75-0.045,4.166,0,4.666c0.045,0.5-0.519,1.75,0.013,2.917c0.532,1.167,2.198,2.833,2.365,4.333
			c0.167,1.5,1.668,5.418,1.834,6.584c0.166,1.166,0.5,3.75,0.583,5s1.668,3.5,1.209,4.25s0,3,0,4.5s0.207,5.001,0.457,6.167
			c0.25,1.166,1.098,3.816,0.799,4.783c-0.299,0.967,0.183,2.318,0.859,1.934s1.092-1.467,2.259-2.884
			c1.167-1.417,2.583-2.75,2.833-2.75s1.333,1.75,1.5,2.5c0.167,0.75,0.666,2.001,1.25,2.667c0.584,0.666,2.546,1.061,2.961,1.384
			c0.415,0.323,0.163,0.402-1.056,0.783c-1.218,0.381-3.112,0.973-3.259,1.019c-0.146,0.045-0.478,1.397-0.562,1.647
			c-0.084,0.25-0.084,1.208-0.084,1.208h-4.083c-1.25,0-1.998-0.459-2.874,0c-0.876,0.459-0.877,0.875-0.793,1.542
			c0.084,0.667,0.116,1.417,0.392,2c0.275,0.583,0.641,1.583,0,2.25c-0.642,0.667-0.948,1.65-1.392,2.25
			c-0.444,0.6-1.324,1.36-0.277,3.437c1.047,2.078,0.925,1.748,2.498,3.467c1.572,1.72,1.613,3.512,1.488,4.262s-0.25,2.25,0.5,2.75
			s1.654,0.238,1.819,0.819c0.165,0.581,0.207,1.642,0.014,1.739c-0.193,0.096-1.083,1.817-1.083,1.817l-0.125,2.5h-2.25l-3-0.75
			c0,0-0.989,0.22,0.25,1.625c1.239,1.405,1.375,2.625,2.375,3s2.25-1,2.375,0s0.625,1.625,0.25,1.875s-2.479,1.551-2.479,1.551
			s-1.097,1.36,0.104,2.449c1.201,1.089,1.271,2.004,1.636,3.116c0.364,1.113-0.132,2.212,0.991,2.923
			c1.123,0.711,0.74,1.612,1.972,3.515c1.231,1.902,0.651,1.696,1.026,3.196s-1.625,2-2.5,1.375s-1.953-3.486-2.43-3.89
			c-0.476-0.403-2.245-0.959-1.762-0.61c0.482,0.349,0.182,1.375,0,2.25c-0.183,0.875,1.485,2.977,1.883,4.093
			c0.399,1.116,0.368,3.256,0.335,3.638c-0.032,0.383-0.38,1.171,0.034,2.328c0.413,1.156,0.94,2.566,2.94,4.316
			s1.375,2,4.625,2.125s3.5,1.375,4.25,0s0.5-2.625,0-3.125s-2-1.625-2.125-2s-1.5-0.875,0-1.875s2.447-1.125,2.599-1.75
			c0.151-0.625,0.901-1,1.901-0.875s4.125,0.625,5.25,0.75s0.5,0.375,2,0.5s3.125,0.25,3.625-0.5s1.5-1.75,0-3.125
			s-3.125-2.562-3.25-3.062s-0.938-1.188-0.938-2.063s0.313-2.437,0.563-3.062s-0.813-1.188,0.687-1.313s2.25,0.5,3.125-0.125
			s1.063-1.625,1.063-2.312c0-0.688,0.25-2.5,0-3.438c-0.25-0.937-0.563-2.187-0.563-3.062s0.75-2,0.313-3.063
			c-0.438-1.062-0.625-1.75-0.875-2.437c-0.25-0.688,0.062-1.688,0.687-2.5c0.625-0.813,2-2.5,3-2.5s1.5,0.125,2.313,0.062
			c0.812-0.062,3.125-0.812,3.5-1.75c0.375-0.937,1.687-3.062,2.375-3.875c0.687-0.812,1.187-1.562,2.25-2
			c1.062-0.437,2.125-0.562,3.562-1.25c1.438-0.687,1.75-2.187,0.563-2.437c-1.188-0.25,0.5-1.125-3.438-0.188
			c-3.937,0.938-4.5,1.313-5.312,1.688c-0.813,0.375-1.813,0.687-1.875,0.437c-0.063-0.25,0.437-2,1.187-2.687
			c0.75-0.688,1.5-1.563,2.063-1.625c0.562-0.063,0.375-1.125,0.562-1.375c0.188-0.25,0.063-1.375-0.812-1.375
			s-2.063-0.125-2.875,0.375c-0.813,0.5-1,0.75-1.875,1.437c-0.875,0.688-2.5,1-2.688,0.688c-0.187-0.313-1.687-0.813-0.937-2
			c0.75-1.188,1.75-2,2.437-2.813c0.688-0.812,1.313-1.125,1.688-1.812c0.375-0.688-0.5-1.313,0.562-1.875
			c1.063-0.563,2.188-0.875,3-0.875c0.813,0,1.625-0.063,2.5-0.688s1.25-1.187,0.5-1.875c-0.75-0.687-2.125-1.687-2.562-2.125
			c-0.438-0.437-1.375-1.312-0.063-1.75c1.313-0.437,1.75,0.25,2.938,0.813c1.187,0.562,3.437,1.25,3.75,1.25
			c0.312,0,2.461-2,2.043-2.188c-0.418-0.187-0.231,0.375-1.793-0.75c-1.563-1.125-1.75-1.609-2.188-2.68
			c-0.437-1.07-0.062-2.195,0.75-2.945c0.813-0.75,1.25-3,0.5-5.312c-0.75-2.313-0.5-2.563-1.562-2.188
			c-1.063,0.375-3.625,0.5-3.75,0s-1.563,1.188-0.188-2c1.375-3.187,1.875-4,1.375-4.5s-1.437-1.062-2.312-1.312
			s-2.375,0.25-2.75,0.125s2.687-1.25,2.937-1.938c0.25-0.687,0.375-1.625-0.125-2.75s-0.5-1.562-1.375-1.312
			s-2.312,0.125-2.625-0.813c-0.312-0.937-2.125-0.687,0.375-2.125c2.5-1.437,3.688-1.875,3.563-3.437
			c-0.125-1.563-0.938-3.438-1.375-3.938c-0.438-0.5-2.125-2.062-2.5-2.562s-1.625-1.313-1.938-2.063
			c-0.312-0.75-0.062-2.375-0.312-2.812c-0.25-0.438-0.563-1.25-0.938-1.75S786,428.5,785.5,427.875s-2.375-0.5-0.938-1.875
			c1.438-1.375,1.813-2.562,2.75-2.125c0.938,0.438,1.563,1,1.75,0.813c0.188-0.188,2.188-1.563,0.125-3.313
			c-2.062-1.75-1.75-1.625-2.625-2.937c-0.875-1.313-2-1.875-2-1.875s-2.562-1.313-3.75-2.188c-1.187-0.875-3.312-1.937-2.937-1.937
			s8-0.375,8-0.375s0.75-0.563,0.187-1.688c-0.562-1.125-1.187-1.562-1.875-2.375c-0.687-0.812-0.687-1.812-2.437-2.312
			s-5.563-0.875-6.125-1c-0.563-0.125-1.188-1.313-1-1.375c0.187-0.063,2.875-1.875,2.875-1.875s-2.063-1.375-2.625-1.375
			c-0.563,0-1.25-0.438-2.813-1.563c-1.562-1.125-2.062-1.75-3.625-1.813c-1.562-0.062-4.312,0-5.562,0s-4.375-0.493-5.5-0.027
			c-1.125,0.465-2.125,1.09-2.938,0.34c-0.812-0.75-0.75-2.188-1.25-2.25c-0.5-0.063-1.437,0.437-2,1
			c-0.562,0.562-1.375,1-1.75,1.312c-0.375,0.313,0.063,0.5-0.875,0.75c-0.937,0.25-2.25,0.188-2.25,0.188L744.583,398.5z"/>
	</g>
	<g>
		<path fill="#86BD2E" d="M742.5,576.334c2.167,0.833,4.001,1.167,4.834,1.667s-1.501,0.333,2.166,0.833
			c3.667,0.5,5.5-0.333,6.667,0s1.667-0.672,2.667,0.164s1.5,1.836,1.5,2.336s-2,1.167-3.167,1.167s-8.666-1-7.833,0
			s0.834,1.5,3,2.333s1.832,1.334,5.166,1.167c3.334-0.167,6.5-1.167,6.5-1.167l-1.333,4c0,0,0.834,0.5-0.833,1s-4,1.5-4,1.5
			s1,1,2.833,1.5s5.5,0,6,0s0.667-1.333,2.5-1s3.001,0.112,3.167,1.223c0.166,1.11-0.5,3.277-1.167,3.277s-2.667,1.166-3.5,1.833
			s-5,0.667-5,0.667H769c0,0-0.667,2.5,0,3c0.667,0.5,0.001,1.001,1.334,1.167c1.333,0.166,4.166-1.166,5.333,0
			c1.167,1.166,5.5,1.999,6,2.166s-2.333,1.167-3.5,1.667s-4.592,3.333-4.592,3.333h-2.908c0,0-1.167-0.833,0.333,0.667
			s2.483,2.833,2.575,4c0.092,1.167,0.592,1.667,1.092,2s-1.092,3.5-1.092,3.5s-5.574-0.167-6.741-1.167s-2-2.333-2.667-1.833
			s0.833,3.833,1.5,4.5s1.999,1.167,2.333,2.5c0.334,1.333,0.5,1.333,1,2s-0.333,2.667-0.333,2.667s-4.333,0.833-5.5,0.833
			s-1.833,0.333-5.5,0s-5,0.297-7.5,0.148c-2.5-0.148-2.833-0.471-4.5,0.024s0.273-4.171-1.613-2.505
			c-1.887,1.666-3.721,3.834-1.554,5.5c2.167,1.666,3.727,1.533,5.243,3.307c1.517,1.773,2.372,2.555,4.005,4.107
			s0.919,3.418,2.419,4.252s4.744,2.775,4.744,2.775l0.756,3.059c0,0-0.5,0.333-2.5,0.833s-5-0.833-5-0.833s2.405,2.742,3.125,3.375
			c0.72,0.633,1.082,0.792,3.67,3.341s6.204,3.617,6.538,4.617c0.334,1-1.332,3.001-0.666,4.667c0.666,1.666,2.166,5.334,2.166,6
			c0,0.666-1.42,3.226-1.497,3.735c-0.077,0.51-1.625,1.986-2.382,1.06c-0.757-0.926-1.368-2.654-3.661-4.475
			c-2.293-1.82-4.793-4.153-4.293-2.653s0.52,1.873,2,4.333c1.48,2.46,4,4.521-0.167,3.094c-4.167-1.427-3.501-0.76-6.667-2.427
			c-3.166-1.667-7.294-3.167-8.813-3.167c-1.52,0-4.687,2.166-3.02,3.333c1.667,1.167,5.808,3.434,5.808,3.434
			s-2.141,1.567,0.192,3.9c2.333,2.333,4.618,3.407,5.484,4.362c0.867,0.955,0.765,1.978,0.765,1.978s-3.137-0.524-5.487-0.915
			c-2.351-0.392-3.159-0.287-5.377-0.19c-2.218,0.098-3.052-3.235-3.052-3.235s-1.5,0.5-1.5,1.333s5.229,4.891,5.625,4.667
			s-1.028,0.577-1.915,1.076c-0.887,0.499-3.377-0.077-3.71,0.59c-0.333,0.667,1.774,2.449,1.604,3.191
			c-0.171,0.743-0.77,2.31-2.937,1.643c-2.167-0.667-3.33-2.693-3.291-2.196s0.65,6.841,0.65,6.841s1.244,3.925,0.6,5.396
			c-0.644,1.471-2.334,5.333-2.334,5.333s-3.104-2.441-5.371-4.822c-2.267-2.381-7.315-7.67-8.128-8.522
			c-0.814-0.851-4.633-4.848-6.587-6.893c-1.954-2.045-3.372-4.137-5.039-4.137c-1.667,0-2.156,0.555,0.459,4.041
			c2.615,3.486,1.831,5.204,5.603,6.498c3.771,1.294,5.771,2.294,5.771,2.294l-0.041,1.875c0,0-0.333,0.26-3.792,0.625
			c-3.459,0.365-4.667,0.667-8.667-0.5s-6.208-2.125-6.208-2.125l1.542,2.458c0,0,1.143,1.301,0.5,2.5
			c-0.643,1.199-0.306,2.395-1.241,2.147c-0.936-0.247-4.427-3.98-6.093-4.48c-1.666-0.5-6.666-4-6.666-4.5s0.167,6.667,1,8.5
			s2.418,5.25,2.292,6.708c-0.126,1.458,0.042,3.126-1.292,1.792c-1.334-1.334,0.489-0.583-3-4.334
			c-3.489-3.751-3.062-2.947-2.123-1.18c0.938,1.768,1.987,3.743,2.581,4.859c0.594,1.116,0.875,2.196,0.375,2.196
			s-4.097-2.105-4.956-3.064c-0.859-0.959-3.435-3.622-5.573-6.216c-2.138-2.595-3.112-3.215-3.304-5.428
			c-0.193-2.213-1.667-5.167-2.334-4c-0.666,1.167,0,2.5-0.833,4.5c-0.833,2-2.167,2.833-2.333,4.5
			c-0.167,1.667-0.275,4.14-0.757,3.432c-0.481-0.708-1.577-4.765-1.577-4.765s-1.518-0.222-2.541,1.375
			c-1.023,1.597-1.678,2.616-2.458,3.843c-0.779,1.226-1.658,2.583-2.894,4.578c-1.235,1.995-2.311,4.172-3.536,5.114
			c-1.225,0.943-2.904,2.589-3.571,2.756c-0.666,0.167-0.5-2.499,1-5.666s2.5-4.834,2.667-7.167
			c0.167-2.333-1.417-4.583-2.542-6.125s-2.791-3.875-4.458-0.875c-1.667,3,1.167,3.333-4,5c-5.167,1.667-6.334,2.624-7.833,4.333
			c-1.5,1.709-3.084,0.501-1.709-2.166s2.826-4.137,1.042-4.5c-1.784-0.363-4.355-1.474-4.355-1.474s-1.437,1.739-3.374,4.273
			c-1.938,2.534-3.271,0.367-4.104,2.034c-0.834,1.667-0.404,4.958-3.417,5.936c-3.014,0.977-6.75,1.231-7.917,2.231
			c-1.166,1-4.5,3-4.5,3s-1.166-3.5,0.834-6s2.666-4.333,2.666-5.833s-8.166-4.167-7.833-2.167c0.333,2,0.48,8.001-0.01,9.167
			c-0.49,1.166,2.032,4.292,0,3.833c-2.032-0.459-4.823-7.667-4.823-7.667s-4.834,4.001-5.667,2.834
			c-0.833-1.167-0.354-5.822-0.354-5.822s1.038-4.179-0.137-5.012c-1.176-0.833-2.509-1-2.342-3.333
			c0.166-2.333,0.667-3.166,1.5-6.333c0.833-3.167,1.166-4.833,1.333-5.5c0.167-0.667-2.528-4.834-2.847-4.667
			c-0.32,0.167-3.319,5.834-2.486,2.667c0.833-3.167,3.166-5,1.333-5c-1.833,0-4.5-1.334-5.5,1.333s-3.166,5.667-4.333,7.5
			s-2.06,5.403-2.765,6c-0.705,0.597-2.624,2.198-2.624,2.198s-1.379-0.964-2.349-1.643c-0.971-0.68-4.741-6.073-5.356-6.81
			c-0.615-0.737-2.245-4.501-2.881-6.016c-0.636-1.514,0.581-2.224,1.028-4.393s0.28-1.17,1.447-3.503
			c1.166-2.333,2.833-3.333,1.833-3.833s-1.748-1.182-3.687-1.591c-1.938-0.409-4.73,2.091-1.938-0.409
			c2.792-2.5,3.792-3.333,3.792-3.333s7.333-1,1-1.5c-6.334-0.5-8.5-0.333-9.5,0c-1,0.333-2.667,1.5-3.834,1.833
			c-1.166,0.333-1.791,0.792-6.166,0.5s-6.75,1.084-5.042-1.958c1.708-3.042,2.484-4.914,5.375-5.542
			c2.891-0.628,4.175-1.685,3.375-2.084c-0.8-0.399-4.208-0.583-4.708-0.416s-0.333-1-2-3s-2.698-4.5-2.599-5.5s1.599-2.5,1.599-3
			S537,645.168,537,645.168s-4.304,1.918-3.818,0.709c0.485-1.209,0.443-6.335,0.443-6.335l-0.481-1.708v-3.166
			c0,0-1.977-1.167-2.811-2.167c-0.833-1-8.98-3.111-8.98-3.111s5.814-3.222,6.314-3.222s4,1.833,4,1.833s1.083-2.955,1-5
			c-0.083-2.045,1.666-5,1.666-5.5s3.5-1.501,3.5-2.167s1.834-4.333,1.834-4.333l1.666,1.5c0,0,2.501-3.167,2.334-4
			s1.333-0.834,2.666-0.167c1.334,0.667,3.001,0.833,5.334,3.5s-0.167,3.834,0.333,4.834s0.667,2.499,2.167,4.166
			s2,2.667,3.833,3.167c1.833,0.5,6.833,2.333,6.833,2.333l2.667,3.5l4.167-0.333c0,0,0.5,1,1,1.5s2.833,0.834,4.166,0.167
			c1.334-0.667,2.667-1.667,4.834-1.667c2.166,0,5.667,1.166,5.5,2.333s-2.5,1.834-1.334,2.334c1.167,0.5,3.834,1.166,5,1.333
			c1.167,0.167,5.167-2.5,5.167-2.5s8.5-1.166,9.833-1.333c1.334-0.167,5.167-0.834,5.167-0.834l4.667,0.834
			c0,0-8.833,3.666-10,4.166s-7.333,1.334-7,1.834s4.5,1.666,4.5,1.666s1.333-1,1.5,0.167c0.166,1.167-1,4.333-1,4.333
			s4-0.166,4.833-0.833c0.833-0.667,5.5-2.166,5.5-0.333c0,1.833-1.833,6.5-1.833,6.5s-3.667,2.333-2.834,2.333
			c0.834,0,8.334-3,8.334-3s2.833,0.506,3.5,1.753c0.666,1.247,1.333,3.747,1.333,3.747s-0.166,2.666,0.167,3.333
			s-0.334,2.501,2.333,0.334c2.667-2.167,2.833-2.834,4.5-4.167c1.667-1.333,1.833-3.494,3.5-3.247
			c1.667,0.247,4.333,1.08,4.833,1.747s3.334,2.5,3.334,2.5s2.5-0.999,3.5-2.333c1-1.334,1.833-3,2.166-4.167
			c0.334-1.167-0.333-2.5,1.5-2.5c1.834,0,2.078,1.166,3.206,2.333c1.128,1.167,2.461,4.168,3.794,3.834
			c1.334-0.334,1.167-0.667,1.334-3.667c0.166-3,0-8.499,1.166-7.833c1.167,0.666,1.667,1.333,2,0.833
			c0.334-0.5,1.334-1.666,0.834-4.333c-0.5-2.667-3.167-2.834-0.5-4.167c2.666-1.333,3.333-1.834,5.166-2.167
			c1.834-0.333,3.334-1,4.334-0.333s2.166,1,3.333,3c1.167,2,3,3.833,3.333,4.5c0.334,0.667-0.833,5.5-0.833,5.5
			s-0.333,1.167,1.333,1.167c1.667,0,3.333,0.333,3.167-1.667c-0.166-2-0.5-3.5-0.5-3.5s3.667-0.334,2.167-1.667s-4-3.333-4-3.333
			s-1.5-1.334-1.334-2.167c0.167-0.833,3.334-4,3.334-4s3.333,0,4.5-0.333s3.334-2.001,2.667-2.167s-6-1.333-6-1.333
			s1.666-2.5,2.166-2.5h6.167c1.167,0,4.5-2.501,5-2.667s4-2.333,5-2.333s1.167,0.834,2.5,0.167c1.333-0.667,5-4.334,5-4.334
			l-4.5-3.833c0,0-4.667-2.333-2.917-2.25s4.75-1.083,6.417-1.083s5.167-4.167,5.167-4.167s3.833-0.167,4.333-0.167
			s-6.5-3.959-6.5-3.959s4.667-1.707,5.5-1.874s4.334,0.001,5.667-2.333c1.333-2.334,2-3.5,3-5.167s-0.125-2.374,2-3
			c2.125-0.626,1.5-2.167,4-2.5c2.5-0.333,5.999-1.333,6.666-1.5c0.667-0.167,4.667-2,4.667-2L742.5,576.334z"/>
	</g>
	<g>
		<path fill="#B5CF4B" d="M460,344l6,5.333h1.667h3.666h1.334H474l1.168,3.334h4.165h2l1.667-4.334v-2.666V344l2.667-3v-2.667v-3
			V333H490l2.667-3.667l6.333-2.666h5l4.667-3l6-3.334l8-4l6.666-3v-4.666l1.334-2.667h7h2.666c0,0-0.333-3.667-1.333-4
			c-1-0.333-2-3.667-2-3.667l1.333-1.666l2-1.334l-5.666-3l-0.334-3L538,288l-1-5.333l-1.667-4.334l-0.666-3.666l-3-5.667l-3-1.333
			l-0.334-2.334h-3.666c0,0-1.667-1.333-2.667-1.333s0-3,0-3l-0.333-2.667h-4.334h-3L511,254l-4.333-3l0.333-3
			c0,0,4-2.667,1.333-2.667h-2.666l4.666-5.666H513l-5.667-6l-4-3.667L497,226.667l-4-2.334l-2-3.666l4.667-6.334c0,0,2.333-3,4.5-3
			c2.166,0,6.166-2,6.166-2h3.334c0,0,2.666,2,3.666,2.334c1,0.333,4.667,2.666,4.667,2.666l5.667-1l8.333-1l3,1l2.667-1.666
			l2.666-2.334l5.334,2.334l2.666,0.333l7-2.667H559h4l3.333-3l3.667-1.666h6.667l4-3H590h7l5.333-2.334h4l2,5H610l2.667-5
			l4.666-4.666v-5.334l1.667-3h3.333l2.334-1.333l2.333,2.667l3.333,3.333v1.667L626,193.333l-3.667,2l-2,2.334l-3,1.666l5,2.334
			l-4,0.666l-4.666,1.334L613,207l-2.333,2l-2.334,1.667l2,1.666l-3.666,1.334L601.333,215l-5,3l-1.666,2l-1.334,1.333l-2,3
			l-3,1.667l-2.666,3l1.666,2.667l0.334,3h4.666L587.667,237c0,0-2.334,0.667-3.334,1c-1,0.333-3.333,1.333-3.333,1.333l-3.667,3
			l4,3.334c0,0-0.333,0.333,1.334,0.666c1.666,0.334-0.334,3.667-0.334,3.667l-3.666,1l2.666,2.667L577,253.333l-5-0.666l-2.667,2
			l0.667,3.666l-2.667,2L565,263.667L563.333,267l-1,6v2.333l-1.333,4l-1.667,2c0,0-0.333,2.667,1,4
			c0.704,0.704,1.778,2.056,2.636,3.177c0.769,1.004,1.364,1.823,1.364,1.823L561,290.667l1.333,3.666c0,0,0.001,4.667,1.334,5.667
			s3.333,2.333,3.333,2.333l5.333-0.666L567.667,305l2.333,4.667l4.333,2.666c0,0,0.667,0.667,1.667,0.667h3.333l7.334-2
			c0,0,2.666-1.333,3.666-1.667c1-0.333,6-2,6-2L599,308l-2.667,5.333l2,1H603c0,0,2.667,2,4.333,2.334c1.667,0.333,7,0.333,7,0.333
			l6-2.333c0,0,2.334-3.667,3.334-3.667s4.666-2.667,4.666-2.667l-3.333,5l-2.667,4l4.667,0.334l2,1l1.333,1.666l3,0.334
			c0,0,0.334-1,2-1c1.667,0,7-0.667,7-0.667l3.667-1.667l7-1.666l6.333,0.666l4.334,1l2.666,3v1.334l6,0.666l3.307-2l4.027,2
			l4.333,2l3.334,0.334l6-0.334H697l5.334,1c0,0,3,1,3.333,0s0-8,0-8l0.148-5.666l-3.481-2.334l-3-4l-5-0.666l-3-0.334
			c0,0,1-2.666,2-2.666s6.333,1.333,6.333,1.333l6.148,4.333l1.852,5.667l3.333-2.667l1.667-4.666V300v-4l-5.333-2l-5.667-2.333
			l-3.333-1c0,0,3-2,4-2s5,3,5,3l5.333,2.333l2.667,4.667H720l4.334-3.334l1.666-2.666l5-3.334l2.334-3.333l2.333-3.667v5.334v4.666
			l-3,1.667l1,3.333l2,1.334l4,1l6.333,1.666l5.667-4l3.333-3l9.334,2l10,2l9,3l11,5.667L805,313.667l14.334,10.666l8.666,7.334
			l-24-22.542l-9.375-5.625c-4.092-1.429-7.51-3.671-10.75-4.75c-13.394-4.459-19.875-5.083-19.875-5.083l-9.333-2.334l-4-4
			l-1.667-3l1-1.708l23,4.042l7,0.708l12.375,2.75L806,293.333l9,3.334l6.667,2.666l1.268,0.669L840,309l9.334,3.333l-13-7.333
			l-13.834-7.125l-20.5-7.542L784.667,286l-13.542-3.875l-17.791-3.458l-5-0.667l0.333-5.333l-0.333-3.834l13,2.834l32,4.666
			L808,279.667l11,3l13,5.666c0,0,10.334,5,12.334,5.667c2,0.667,14.333,8,15.333,8.333c1,0.334,14.333,7,14.333,7l4.667,4.334
			l-15-13.334l-16-7.666L828,284l-12.625-4.375L799.125,275l-17.625-3.25l-18-3.5l-14.125-2.875L746.75,265l-0.875-5.625l0.25-5.375
			c0,0,7-0.75,7.625-0.75s20.375-1.75,20.375-1.75l22,0.375l15,0.875c0,0,17,2.75,19,3s17.25,4.75,17.875,4.75
			s13.125,3.625,14,3.875s11.75,2.25,11.75,2.25s5.69,0.64,7.5,1c3.172,0.631,6.75,0.682,7.625,1c1.375,0.5,8.875,1.5,10.375,1.625
			s13-0.5,13-0.5l-15-2.75l-17.875-3.25c0,0-15.625-2.375-16.5-2.75s-16.088-4.632-16.088-4.632s-13.162-3.493-14.912-3.743
			c-0.895-0.128-9.841-2.711-17.625-3.125c-7.438-0.396-15.125-0.625-15.125-0.625h-14.5h-12.75c0,0-10.625,0.75-11.125,0.875
			s-10,0.5-10,0.5l-5.5,0.875l12.125-3.5c0,0,14.5-2.25,14.875-2.125s14.25-1.875,14.25-1.875s19.375-1.875,20.25-1.875
			s16,0.125,16,0.125l13.5,1.5c0,0,13.625,4,14.125,4s11,4.75,11,4.75l8.375,5l6.25,4.125l-0.375-2.875c0,0-5.625-4.875-6.125-5.125
			s-8.125-5.125-8.125-5.125l-11.5-3.75l-17-4.125l-20.125-1.5l-12,0.25l-14.49,1.033l-12.51,1.592c0,0-11.25,2.25-11.75,2.25
			s-8.375,1.625-8.375,1.625l-6.25,0.75h-3l0.875-2.625l3.25-1.5l31.125-7.25l15.875-2l27.875-2.75L845.5,231l11.875,1.5l13.75,3.5
			c0,0,13.375,2.875,13.875,2.875s13,1.875,13,1.875h10.25l6.75-1.875l-10.625-1.375l-9.125-0.375l-8-1.375
			c0,0-12.125-2-12.75-2.125s-13.875-3.125-13.875-3.125l-11.5-2.25l-24.875-1.625l-18.375,2.125l-17,1.75l-15,3.125l-20.25,3.25
			l-9.25,4l-2.25-9.375c0,0,1.125-2.625,1.5-2.625s7.752-4.767,7.752-4.767l19.75-7c0,0,13.248-4.483,13.873-4.608
			s16.375-5.75,16.75-5.875s10.25-3.375,11.625-3.5S830.25,199,830.25,199l12.75-1.125c0,0,13.25-1.375,13.875-1.375
			s9.5-0.125,9.5-0.125l16.75-0.625l6.375-2L863.25,193c0,0-15.125,0.25-15.625,0.25s-22.25,2.75-22.25,2.75
			s-16.875,4.125-17.75,4.375s-17.875,6.125-19,6.5s-9.25,3.25-12,4.125s-13.5,4.75-13.5,4.75l-9.875,3c0,0-8.75,4.125-9.25,4.5
			s-3.875,2.125-4.25,2.125s-2.25-3.125-2.25-3.125l2.25-3.25l4.25-2.5l13.25-8.25l12.625-6.125l10.25-3.25l10.5-2.625l12.75-1.5
			l16.375-2.375l23.375-2.5h9.5h8l-17.375-3.75l-27,2.375l-13.375,1.625c0,0-15.5,3.375-16.125,3.5s-17.875,5.5-18.25,5.5
			S801.375,188,801.375,188l27.375-7.75l16-1.75l16.25-0.125c0,0,14.625-1,15-1h22.125l-36.625-3.5l-36.75,3.25l-27.5,6.625
			l-13.728,5.742l-19.625,7.875L753.5,204.5c0,0-9.125,5-9.875,5.875c-1.142,1.332-2.224,2.199-6.625,5.5l-2.375-0.25l-7-10.125
			l-6.25-4.5l-6.25-4.25l-6.375-3.625c0,0-8.125-4.625-8.5-4.875s-6.5-3.75-6.5-3.75l-5.25-2.625l-5.625-0.125l-3,0.875l-2.625,2.25
			c0,0,1.125,2.125,1.5,2.25s1.5,0.75,1.5,0.75s-0.125,1.75-0.25,2.625s2.5,3,2.5,3s3.125,1.5,3.75,1.5s3.875-1.125,3.875-1.125
			l2.25-0.875c0,0,1,0.875,1.5,1.25s-0.875,1.5-0.875,1.5l-3,1.875l-4.875,0.75l-4.5-0.75L680,198.75l1.5,3.375l2.5,2.25l0.5,4.125
			l-0.25,1.375l-1.5-4.75l-4-3l-2-2.125l-4,1.125v3.25L674,206l-2.875-1.125l-1.375-1.75L666,203.25l-1.75,1.5l-0.5,2.5v4.5
			l-1.125,2.375l-4.125,1.5c0,0-3.625,1.375-4.375,1.625s-7.25-0.75-7.25-0.75l-2.625-2.125l-3.125,0.875c0,0-1.625,1.5-1.75,1.875
			s-1.625,2.5-1.625,2.5l-3.125,0.25l-1.875-2.125l0.625-2.5l4.125-3.625l4.625-1l3.5-2.125l2-4.125c0,0,2,0.25,2.25-0.125
			s2-3.25,1.375-3.625S648.875,200,648.875,200l-4.125,1.875l-5-1.25c0,0-0.25-4.125-0.375-4.625s0.875-4,0.875-4s4-1.5,4.375-1.5
			s5.75-2.125,5.75-2.125l2.5-2.25l-2.25-2.25h-4.875l-2.5,0.875l6.25-3.125l2.25-2.875c0,0,0.125-3-0.125-3.375
			s-2.125-1.75-2.125-1.75l-4.5,0.125l-2,3l-3.25,2.375L636,181.5l-4.375,1.5l-2.5,2.625l-3.625-1.5l0.25-3.25l3-4.5l0.625-4.875
			l-3.5-3.375c0,0-3-0.125-3.75-0.125s-1.875,5-1.875,5v4l-0.375,2.375c0,0-3.625,0.125-4.25-0.125s-4-1.125-4-1.125
			s-0.875-1.5-0.875-2.25s0.125-4.5,0.125-4.5l-1.125-2c0,0-5,1-5.5,1.25s-3.375,2.375-3.625,2.875s-0.625,2.375-0.25,3
			s2.125,4.25,2.125,4.25s-0.5,1-1.625,1.375s-3.375,1.5-4.25,1.75s-2.375,1.5-2.375,1.5s-1.25,0.75-2.25,0.875
			s-4.375-0.375-4.375-0.375l-4.125,1.375c-0.375,0.125-1.625,1.5-1.125,2s1.875,1.375,2.25,1.875s-2.375,3-2.375,3
			s-2.75,0.25-4,0.25s-3.75,0.125-3.75,0.125l-6.375,1c0,0-2.25,2.5-1.625,2.875s2.125,1.875,2.25,2.25s1,0.75,0.5,1.125
			s-7.5-0.25-7.875-0.25s-7.5,0.375-7.5,0.375l-4.5,2.25l-4.125,2.125l-8.5,3.75l-8,0.375L523.125,211l-6.875-1.75l0.25-3
			l2.125-4.125l1.875-2.25l-1.875-3.375l-1.75-1.375l2.875-2.75c0,0,2.25-1.125,2.25-1.625s-0.625-3.625-0.875-4s1.5-2.25,1.5-2.625
			s3.5-2.375,4.25-2.75s4.625-2.5,4.625-2.5s5.875,0.25,6.25,0.25s6.5-1.625,7.125-1.75s6.5-1.625,7.125-1.875s6-3,6-3l1.375-2.25
			l-4.625-2.875h-5.125l-4,1l-7.375,2l-6.5,1.25c0,0-4.5,1.875-4.875,2s-6,2.25-6,2.25l-4.125,2.625l-6.875,3.125
			c0,0-3,2.875-3.125,3.375s-1.75,2.875-1.75,2.875s-0.5,2-1,2.625s-4.125,2.125-4.5,2.125s-1.5,1.75-1.5,2.375s0,1.5-0.5,1.5
			s-1.5-1.875-1.625-2.625s-0.625-2.25-0.625-2.25l-3.125,1l-1.375,2.75l-0.25,3.375c0,0-0.625,4.125-0.75,4.5
			s-1.375,3.625-0.375,4.5s2.375,2.625,2.375,2.625l-0.25,0.75l-2.375,3.375l-1.25,2l-3.75-0.625L480.75,214l1.5-2.25l2.5-1.375
			l0.375-2.375l-1.375-3.25l-4.375-0.625l-4.125,0.125l-1.125-0.875l7-2.875l0.625-3.625l0.5-3.25c0,0,1.875-2.75,2.25-2.75
			s4.5-3.125,4.5-3.125s2.75-2.125,2.875-2.5s-0.5-3.5-0.5-3.5l2.875-2.125h2c0.5,0,2.875-1.75,2.875-2.75s-0.125-3,0.25-3.375
			s2-1,1.625-1.375s1.375-1.875,1.875-1.875s2.375,0.875,3,1.375s2.25,2,2.625,2.125s3.625,0.125,4.25-0.375s6-2.75,6.375-3.125
			s3.25-1.625,3.625-1.875s0.875-1.875,0.875-1.875l2.25-1.875c0,0,1.75-0.375,1.375-0.75s-4.25-4.5-4.25-4.5s0-0.875,0.625-1.375
			s3.25-1.5,3.25-1.5l5.875,1.625l2.5-0.625c0,0,2-1.375,2.25-1.875s-6.125-1.375-6.5-1.25s-3.75-0.012-3.75-0.012
			s1.5-1.488,2-1.738s5.25-2.375,5.25-2.375l1-0.875l3-0.875c0,0,0.75,0.75,1.125,0.875s5-0.875,5-0.875l3.875-1.125h2.25
			c0,0-2.375,3.25-3.125,3.375s-3.25,2.125-3.25,2.125s1.5,0.5,2.5,0.625s5.375-1.125,5.875-1.25s0.5-1.25,2.625-1.375
			s6.125-0.125,6.125-0.125s2.75,1,5,1s3.125,0.125,3.125,0.125s-0.375,1.5-1.375,1.875s-3.125,1-3.125,1s-3.375-0.375-5.25-0.375
			s-2.625-0.125-4.125,0.125s-5.875,1.125-6.625,1.5s-4,2.25-4,2.25s-0.625,0.25,0.125,0.875s1.375,1.5,1.625,1.875
			s0.375,1,0.75,1.375s-1,0.375,1.5,0.75s3.375,0.75,4.625-0.125s0.5-1.5,2.375-1.625s4,0.25,4.625,0.25s5.125-0.375,5.125-0.375
			s-0.625,1.375-1,1.625s-0.625,0.75-2,1s-3.375,1-3.375,1s-1-0.5,0.25,1.125s-0.625,0.875,1.25,1.625s2.875,1.125,4,0.5
			s2.75-2,3-2.75s0.375-0.875,0.875-1.625s1.25-1.125,1.875-0.875s1.25-0.25,1.875-1.125s0.875-1.5,1.125-2.375s2.875-3,2.875-3
			l0.5-1c0,0,2.5-1,3.5-1.25s1.125-0.75,1.875-1.125s-0.375-0.375,2-0.875s2.5-0.5,3.25-0.75s0.875-0.625,1.375-1.125
			s0.875-1,0-1.25s-2.875-0.75-3.25-0.75s-2.625-0.125-2.625-0.125s-1.125,0.625-0.875,0s0.625-1.125,1.5-1.75s4.5-2.75,4.5-2.75
			s-0.125-0.125,0.75-0.75s1.625,0.25,1.75-2s-2-3.625-2-3.625s-2.375-0.375-3.5,0s-3.25,1-4,1.125s-2,0.75-3,0.875
			s0.125,0.375-3,0.5s-4.625,0.125-5,0.125s-3.75-1-4.5-1.25s-0.75-0.875-4-0.75s-5,0.25-5.375,0.25s-2.375,1-3,1.375
			s-1.875,1.25-3,1.875s-6.875,2-7.25,2.125s-1.625,0.375-4.625,0.875s-3.75,0.5-5.25,1.125s-5.75,1.5-5.75,1.5
			s-0.75,0.75-2.625,1.125s-3.125,1-4.375,1.375S517,150.875,516,151.125s-3.875,1.25-4.375,1.75s-2.875,1.625-3.5,2s-4,2.5-4,2.5
			s-1.75,2.75-2,3.125s-1.375,1.75-1.375,1.75s0,1.25-0.5,1.625S498,165.75,498,165.75s-1.75,0.625-2.125,0.875S493.5,168,493.5,168
			s-0.375,0.75-0.5,1.125s-1,1.5-1.625,2.25s-2.5,2.75-3.5,3.5s-2.625,1.5-3.25,2.25s-2.375,2.125-2.375,2.125l-1,1.875l-0.5,1.5
			c0,0-0.875,0-1.25,0.25s-1.375,1.5-0.625,2.125s1.5,0.375,1.375,1.25s-0.625,1-1,1.625s-0.75,1.5-1.125,1.75s-1.5,1.5-1.5,1.5
			h-1.5l-1.5,1.25c0,0,0.75,1.5,0.375,2.375s-0.25,2.25-0.625,2.625s-1.625,1.875-1.625,1.875s-2.125,2-2.25,2.375
			s0.375-0.125-1.625,1.5s-2.75,2.375-3.875,2s0-2.25-2.875-2.625s-5.75-1.125-6.25-0.625s-1.75,2.125-1,2.625
			s4.25,1.625,5.125,2.25s3.5,1.5,3.625,2.125s-1.875,2.625-2.5,3.375s3.375-0.125,2.625,1s-2.625,2.625-2.625,2.625
			s-1.875,1.125-2.25,1.5S455,216.875,454,217s-1.75,3.25-1.75,3.625s3.875,1.625,4.5,1.125s5.875-4.375,6.5-4.875
			s4.875-4.25,5.375-4.5s6-3.375,6-3.375l0.5,2.125c0,0-0.75,1.5-2.625,2.25s-5,2.625-5,2.625l2,0.5c0,0-1.25,4.25-1.375,4.75
			s1.875,3,1.875,3l2.375,1c0,0,0.375,2.5,0.5,3.125s1,4,0.75,5.125s-1,3-1.625,3.5s-0.75,1.125-2.625,1.875
			s-4.125,0.75-5.125,1.125s-3.75,0-4.25,0s-2.5-0.75-2.5-0.75s-1.125-1.5-1.5-3s0.75-3.25,0.875-3.875s-1.625-2-2.625-3.375
			s-3.75-3.125-4.25-3.125s-3.75-0.75-4.375-0.625s-5.25,0.125-5.75,0.375s-3.75,0-4.125,0.75s-1.375,2.125-1.625,2.75s0,3,0,3.75
			s-1.875,3.5-1.875,3.5s-1.375,1.625-1.5,2.125s-0.625,3.375,0.125,4.625s1.625,2.5,2.125,4.125s1.25,3.625,0.875,4
			s0.375,2.5,0.875,2.625s1.125-0.75,1.75-1.5s0.625-1.875,1.875-2.25S439,249,441,249.375s3.5,0,4,0.625s1.5,1.125,2.5,2.625
			s2.125,3,3.25,3.375s0.875,0.375,3,0.625s1.125,0.125,3.25,0.125s3.25-0.875,3.875-0.75s0.875-0.375,3.125,1s4.75,1.625,5.5,2.375
			s0.875,1.875,3.375,2.25s4.25,0.375,6.75,0.375s4.625,0,5.25,0.25s1.625,1.125,1.625,1.125s-1,0.75-1.375,0.875
			s-2.75,0.125-3.25,0.125s-5.5-0.25-7.125-0.25s-2.75,0.625-6.25-0.875s-5.625-3.75-7-3.875s-3.25,0.625-4.375,1.25
			s-0.875,0.75-3.125,2.25s-5.125,2-5.125,2s0.625-3-0.125-4.25s-2.625,0.375-2.75,0.75s-0.625,1.5-0.875,1.875l-1.5,2.25
			c0,0-0.375-1-3.5-1.75s-5.5-2.5-6.625-2.75s-2.875-0.75-3.875-0.375s-4.25,0.625-3.75,1.875s1.75,1.25,1.625,3.5
			s1,3.125,1.125,4.25s-1.125,3-1.5,3.5s-2.375,1.5-1.5,3.5s2.375,3.625,2.375,3.625s2-0.5,2.875-2.5s0.125-1,2-3.125
			s4-4.5,3.25-2.375s-1.75,3.625-1.875,4.375s-0.375,1.625,3.125,3.5s3.75,1.25,4.375,3.125s-6.25,1.875-0.25,4
			s5.25,1.5,7.625,2.875s3.625,2.125,5,1.875s4.875-1.625,5.125-3.5s-0.5-2.5,0-3.625s1.875-3,2.375-1.375s0.875,2.625,0.375,4.125
			s-1.25,2.625-1.875,3s-1.5,2.5-4.375,3.375s-5.625,1.5-7.375,1.25s-0.375-1-3.625-1.625s-5.75-2.25-6.625-1.125
			s-4,3.75-2.375,4.625s3.875,0.625,4.375,1.375s1.125,2,0.5,2.5s-1.75,4.25-0.75,4.625s0.625,0.375,2.625,0.75l2,0.375
			c0,0-0.75,2.5-1.5,3.375s-3.625,3-5.25,4.25s-4,3.875-4.5,4.625s-3.5,0.125-1.125,2.5S436.5,325.375,438,324
			s1.75-2.375,3.125-3.25s2.5-0.875,2.5-0.875s-1.125-0.625-1.875,1.875s-2.875,4.375-2.875,5.125s1.375,2.375,1.375,3.125
			s5.5-1.375,5.5-1.375c-1.375,2-2.75,4.125-3.375,5.125s-3.625,5.125-0.875,4.125s3.5-1.75,7.375-3s4.375-0.875,5-3.25
			s1.625-6.25,1.625-6.25s0.75,1.375,0.625,2.625s-0.125,2.625-0.5,4s-1.75,3-1.875,3.625s-2,2.625-2.625,3.125s-0.5,2.25,0,3.25
			s1.25,1.75,3.5,2.125s3.625,0.625,3.625,1.125S460,344,460,344"/>
	</g>
	<g>
		<path fill="#509634" d="M691.334,205.458c0,0,1.374,1.708,1.541,2.375c0.167,0.667-0.084,1.417,0.25,1.875
			c0.334,0.458,1.625,1.625,2,2s0.668,0.917,1.459,1.333c0.791,0.417,2.209,0.917,2.875,1.667c0.666,0.75,2.459,1.833,3.125,2.083
			c0.666,0.25,3.124,0.584,3.291,0.584s5.418,0.041,6.334,0c0.916-0.042,2.792-0.334,3.125-0.5c0.333-0.167,1.042-0.375,1.75-0.375
			c0.708,0,2.75-0.25,3.875,0.166c1.125,0.417,2.75,1.125,3.75,1.709c1,0.583,3.207,3,3.041,3.208
			c-0.166,0.208,0.125,1.917,0.5,2.458c0.375,0.542,1.209,0.834,1.417,1.542c0.208,0.708-0.084,1.417-0.167,1.833
			c-0.083,0.417,1.084,0.709-0.666,0.917c-1.75,0.208-1.75,0.125-3.667-0.5c-1.917-0.625-2.208-0.917-3.708-0.958
			c-1.5-0.042-1.959,0-3.917,0.291c-1.958,0.292-2.042,0.667-5.542,0.667s-3.666-0.375-5.416-0.042
			c-1.75,0.334-4.25,0.75-6.25,1.459c-2,0.708-2.334,1.291-4.542,1.833c-2.208,0.542-4.667,1.417-5.5,1.75
			c-0.833,0.333-2.292,0.833-2.667,1.042c-0.375,0.208-2.624-0.042-0.791-1.542c1.833-1.5,2.041-1.792,4.708-2.208
			c2.667-0.417,4.709,0,6.042-0.792c1.333-0.792,1.333-0.75,3.083-1.75s0.833-1.667,4.458-1.75c3.625-0.083,4.959-0.083,7.334-0.042
			c2.375,0.042,2.791-0.041,4.208-0.375c1.417-0.333,2.167,0.209,3.292-0.541s2.708-0.459,1.833-1.959s-1.333-2.041-2-2.416
			c-0.667-0.375-2.542-0.937-3.25-0.802c-0.708,0.135,0.042-0.032-2.833,0.635c-2.875,0.667-3.084,1.167-5.084,1.042
			s-4.291-0.792-5.791-1.167s-2.666-0.417-3-0.833c-0.334-0.417-0.292-0.75-1.542-1.792c-1.25-1.042-2.208-1.917-2.958-2.5
			c-0.75-0.583-1.375-1.417-2.125-2.167s-1.668-1.583-2.084-2.875c-0.416-1.291-0.792-1.875-0.375-2.666
			C691.167,206.583,691.334,205.458,691.334,205.458"/>
	</g>
	<g>
		<path fill="#509634" d="M736.167,235.167v2.333c0,0,0.125,0.834,0,1.584s-0.166,1.75-0.583,2.5s-0.458,1.083-0.75,1.625
			c-0.292,0.541-0.709,1.208-1.167,1.541c-0.458,0.334-0.334-0.125-2.25,1.584c-1.916,1.708-2.416,2.333-2.583,2.5
			c-0.167,0.166-2.459,1.291-2.667,1.291c-0.208,0-1.625,0-2.625-0.208c-1-0.208-1.125-0.375-1.75-0.292
			c-0.625,0.084-1.125,1-1.333,1.375s-0.042,0.625-0.292,1.042c-0.25,0.417-0.375,0.958-1.5,0.875
			c-1.125-0.083-1.666-0.542-2.166-0.583c-0.5-0.042-1.042,0.541-1.542,1.375c-0.5,0.833-0.708,1.291-1.708,1.125
			c-1-0.167-0.834-0.251-3.667-0.209s-4.751,0.542-5.167,0.75c-0.416,0.209-1.541,0.75-1.541,0.75s-0.375,0.459,0,0.834
			s0.791,0.583,1.541,1.166c0.75,0.584-0.084,0.917,2.875,1.542c2.959,0.625,3.458,0.833,4.375,0.583
			c0.917-0.25,1.584-0.667,3.459-0.125s2.167,0.625,3.875,1.292c1.708,0.667,3.624,1.333,4.458,1.833
			c0.834,0.5,1.75,1.458,2.625,1.792c0.875,0.333,2.376,1.25,3.834,2.542c1.458,1.291,2.166,1.708,2.916,2.5
			c0.75,0.791,1.292,1.166,1.917,1.666s1.026,1.042,1.472,1.084c0.445,0.041,0.945,0.374,0.903-0.292
			c-0.042-0.667-0.583-1.917-1.333-2.667s-0.709-0.5-1.459-1.916c-0.75-1.417-1.125-1.292-0.625-2
			c0.5-0.709,0.625-0.917,0.125-1.375c-0.5-0.459,0.168-0.334-1.291-0.959s-2.666-0.75-3-1s-1.084,0.084-0.917-1
			c0.167-1.083-0.084-1.125,0.208-1.75s0.541-0.917,0.875-1.708c0.334-0.792,0.041-1.208-0.25-1.458
			c-0.291-0.25-0.875-0.5-1.375-1.75s-0.584-1.417-0.5-1.834c0.084-0.416-0.416-0.291,0.292-0.791s0.001-0.459,1.542-1.084
			s1.666-0.833,2.958-1.791c1.292-0.959,2.083-1.167,2.708-2c0.625-0.834,1.208-1.167,1.625-2.459
			c0.417-1.291,0.209-0.5,0.709-1.791c0.5-1.292,0.75-1.417,0.875-2.209c0.125-0.791,0.042-1.5,0-1.791
			c-0.042-0.292,0-0.792-0.375-1.709c-0.375-0.916-0.376-1.458-0.584-1.708s-0.625-0.708-0.875-0.958
			S736.167,235.167,736.167,235.167"/>
	</g>
	<g>
		<path fill="#B5CF4B" d="M652.576,166.75c3.174,0.063,2.549,0.625,3.799,0s1.938-1.125,2.25-0.875
			c0.313,0.25-1.25-1.148,1.25,0.551s2.938,2.012,3.25,2.137c0.313,0.125,0.188,1,1.125,0c0.938-1,1.188-0.75,1.563-1.876
			c0.375-1.125,1.312-1.562,0.437-2.562s-3.125-3.375-3.25-3.563c-0.125-0.187-1.062-0.75-2.125-1.562
			c-1.062-0.813-2.562-1.188-3.875-1.438c-1.312-0.25-2.687-0.125-3.437-0.312c-0.75-0.188-0.707,0.312-1.291-0.813
			s-0.084-1.187-0.709-1.687s-1-0.875-1.375-1.063c-0.375-0.187-1.313-0.437-1.688-0.625c-0.375-0.187-1-0.562-1.25-1.187
			s-0.125,1.375,0-1.875s-0.5-3.25-1.625-3.25s2.438-0.813-2.437,0c-4.875,0.812-4.063,0.562-5.5,0.875
			c-1.438,0.312-1.938-0.188-2.625,1c-0.688,1.187-2.188,1.75-1.125,2.375c1.062,0.625,4.562,1.625,4.625,2.187
			c0.062,0.563,0.25,1.375-0.063,2.875c-0.312,1.5-0.375,1.813,0.063,3.313c0.437,1.5,0.187,1.875,2.437,2.062
			c2.25,0.188,4.688,0.188,5.063,0.188s1.562-0.563,2.562,0.75c1,1.312,1.875,2.062,2.188,3.187
			c0.312,1.125,0.187,1.501,0.687,1.501S652.576,166.75,652.576,166.75"/>
	</g>
	<g>
		<path fill="#347C33" d="M477.083,377.5c1.833,1.167,2.583,1.51,2.75,1.797c0.167,0.286-0.25,0.203,0.417,1.12
			c0.666,0.916,0.083,0.417,1.083,1.5c1,1.083,1.333,1.417,1.167,1.75c-0.167,0.333-0.667,0.667-1.167,0.75
			c-0.5,0.083-4.833-0.75-5.5-1c-0.667-0.25-2.333-1-2.333-1s-1.084-0.911-0.917-1.456c0.167-0.544,0.333-1.034,0.917-1.664
			C474.083,378.667,477.083,377.5,477.083,377.5"/>
	</g>
	<g>
		<path fill="#6F952E" d="M465.927,363.835c0.241,0.082,0.907,0.749,1.407,1.499s0.833,1.417,1.167,2.167
			c0.333,0.75,0.917,2.333,1.167,2.5c0.25,0.166,0.25,0.583-0.5,0.583s-1,0.583-2.334-0.417c-1.333-1-1.083-1.663-1.833-2.873
			s-1.25-1.46-1.333-2.46c-0.084-1-0.084-0.5-0.334-1.75s-1-2.584-0.25-2.167c0.75,0.417,1.917,1.417,2,1.667
			C465.168,362.834,465.927,363.835,465.927,363.835"/>
	</g>
</g>
</svg>
